<svg width="1440" height="300" viewBox="0 0 1440 300" fill="none" xmlns="http://www.w3.org/2000/svg">
<rect width="1440" height="300" fill="#000033"/>
<mask id="mask0_115_76" style="mask-type:alpha" maskUnits="userSpaceOnUse" x="0" y="0" width="1440" height="300">
<rect width="1440" height="300" fill="#242455"/>
</mask>
<g mask="url(#mask0_115_76)">
<path d="M833.5 1H1440V301H583.5L833.5 1Z" fill="#000024"/>
<path style="mix-blend-mode:screen" d="M682.492 187.199C775.602 73.6381 849.2 -19.9645 846.877 -21.8686C844.555 -23.7726 767.192 66.7429 674.083 180.304C580.973 293.864 507.375 387.467 509.698 389.371C512.02 391.275 589.383 300.759 682.492 187.199Z" fill="url(#paint0_radial_115_76)"/>
<path style="mix-blend-mode:screen" d="M682.492 187.199C775.602 73.6381 849.2 -19.9645 846.877 -21.8686C844.555 -23.7726 767.192 66.7429 674.083 180.304C580.973 293.864 507.375 387.467 509.698 389.371C512.02 391.275 589.383 300.759 682.492 187.199Z" fill="url(#paint1_radial_115_76)"/>
<path style="mix-blend-mode:screen" d="M701.407 202.704C788.663 96.2832 849.047 1.52534 836.279 -8.94338C823.511 -19.4121 742.425 58.3726 655.169 164.794C567.914 271.215 507.529 365.973 520.297 376.441C533.066 386.91 614.151 309.125 701.407 202.704Z" fill="url(#paint2_radial_115_76)"/>
<path style="mix-blend-mode:screen" d="M712.826 212.069C781.78 127.969 822.216 47.114 803.14 31.4741C784.065 15.8341 712.703 71.332 643.748 155.432C574.794 239.532 534.359 320.387 553.434 336.027C572.509 351.667 643.871 296.17 712.826 212.069Z" fill="url(#paint3_radial_115_76)"/>
<path style="mix-blend-mode:screen" d="M744.67 76.0405C868.195 -74.6155 966.449 -198.29 964.126 -200.194C961.804 -202.098 859.785 -81.5107 736.26 69.1453C612.736 219.801 514.482 343.476 516.804 345.38C519.126 347.284 621.146 226.697 744.67 76.0405Z" fill="url(#paint4_radial_115_76)"/>
<path style="mix-blend-mode:screen" d="M744.67 76.0405C868.195 -74.6155 966.449 -198.29 964.126 -200.194C961.804 -202.098 859.785 -81.5107 736.26 69.1453C612.736 219.801 514.482 343.476 516.804 345.38C519.126 347.284 621.146 226.697 744.67 76.0405Z" fill="url(#paint5_radial_115_76)"/>
<path style="mix-blend-mode:screen" d="M763.586 91.5454C879.344 -49.6388 962.834 -172.578 950.066 -183.046C937.298 -193.515 833.107 -87.5494 717.348 53.6348C601.59 194.819 518.1 317.758 530.868 328.227C543.636 338.695 647.827 232.73 763.586 91.5454Z" fill="url(#paint6_radial_115_76)"/>
<path style="mix-blend-mode:screen" d="M775.004 100.911C866.483 -10.6611 925.178 -113.787 906.103 -129.427C887.027 -145.067 797.406 -67.2984 705.926 44.2736C614.447 155.846 555.752 258.971 574.828 274.611C593.903 290.251 683.525 212.483 775.004 100.911Z" fill="url(#paint7_radial_115_76)"/>
</g>
<defs>
<radialGradient id="paint0_radial_115_76" cx="0" cy="0" r="1" gradientUnits="userSpaceOnUse" gradientTransform="translate(681.049 185.494) rotate(-50.6513) scale(265.838 5.14506)">
<stop stop-color="white"/>
<stop offset="0.21" stop-color="#3296B8"/>
<stop offset="0.29" stop-color="#005977"/>
<stop offset="0.38" stop-color="#003A4E"/>
<stop offset="0.47" stop-color="#002531"/>
<stop offset="0.57" stop-color="#001B24"/>
<stop offset="0.68" stop-color="#001015"/>
<stop offset="0.81" stop-color="#000A0D"/>
<stop offset="1"/>
</radialGradient>
<radialGradient id="paint1_radial_115_76" cx="0" cy="0" r="1" gradientUnits="userSpaceOnUse" gradientTransform="translate(681.049 185.494) rotate(-50.6513) scale(265.838 5.14506)">
<stop stop-color="white"/>
<stop offset="0.44" stop-color="#006D92"/>
<stop offset="0.5" stop-color="#005B7A"/>
<stop offset="0.56" stop-color="#003F55"/>
<stop offset="0.63" stop-color="#002734"/>
<stop offset="0.7" stop-color="#001218"/>
<stop offset="0.77" stop-color="#000C10"/>
<stop offset="0.87" stop-color="#00090C"/>
<stop offset="1"/>
</radialGradient>
<radialGradient id="paint2_radial_115_76" cx="0" cy="0" r="1" gradientUnits="userSpaceOnUse" gradientTransform="translate(676.506 182.488) rotate(-50.6513) scale(249.258 29.5793)">
<stop stop-color="#007198"/>
<stop offset="0.09" stop-color="#015B7A"/>
<stop offset="0.21" stop-color="#004157"/>
<stop offset="0.34" stop-color="#002836"/>
<stop offset="0.48" stop-color="#001921"/>
<stop offset="0.62" stop-color="#000D11"/>
<stop offset="0.79"/>
<stop offset="1"/>
</radialGradient>
<radialGradient id="paint3_radial_115_76" cx="0" cy="0" r="1" gradientUnits="userSpaceOnUse" gradientTransform="translate(-118859 204874) rotate(-50.6513) scale(120004 3848.57)">
<stop stop-color="#006D93"/>
<stop offset="0.09" stop-color="#005A78"/>
<stop offset="0.21" stop-color="#003B4F"/>
<stop offset="0.34" stop-color="#002734"/>
<stop offset="0.48" stop-color="#001A23"/>
<stop offset="0.62" stop-color="#000E12"/>
<stop offset="0.79"/>
<stop offset="1"/>
</radialGradient>
<radialGradient id="paint4_radial_115_76" cx="0" cy="0" r="1" gradientUnits="userSpaceOnUse" gradientTransform="translate(743.311 74.2337) rotate(-50.6513) scale(352.675 5.14506)">
<stop stop-color="white"/>
<stop offset="0.21" stop-color="#3296B8"/>
<stop offset="0.29" stop-color="#005977"/>
<stop offset="0.38" stop-color="#003A4E"/>
<stop offset="0.47" stop-color="#002531"/>
<stop offset="0.57" stop-color="#001B24"/>
<stop offset="0.68" stop-color="#001015"/>
<stop offset="0.81" stop-color="#000A0D"/>
<stop offset="1"/>
</radialGradient>
<radialGradient id="paint5_radial_115_76" cx="0" cy="0" r="1" gradientUnits="userSpaceOnUse" gradientTransform="translate(743.311 74.2337) rotate(-50.6513) scale(352.675 5.14506)">
<stop stop-color="white"/>
<stop offset="0.44" stop-color="#006D92"/>
<stop offset="0.5" stop-color="#005B7A"/>
<stop offset="0.56" stop-color="#003F55"/>
<stop offset="0.63" stop-color="#002734"/>
<stop offset="0.7" stop-color="#001218"/>
<stop offset="0.77" stop-color="#000C10"/>
<stop offset="0.87" stop-color="#00090C"/>
<stop offset="1"/>
</radialGradient>
<radialGradient id="paint6_radial_115_76" cx="0" cy="0" r="1" gradientUnits="userSpaceOnUse" gradientTransform="translate(738.653 71.368) rotate(-50.6513) scale(330.68 29.5793)">
<stop stop-color="#007198"/>
<stop offset="0.09" stop-color="#015B7A"/>
<stop offset="0.21" stop-color="#004157"/>
<stop offset="0.34" stop-color="#002836"/>
<stop offset="0.48" stop-color="#001921"/>
<stop offset="0.62" stop-color="#000D11"/>
<stop offset="0.79"/>
<stop offset="1"/>
</radialGradient>
<radialGradient id="paint7_radial_115_76" cx="0" cy="0" r="1" gradientUnits="userSpaceOnUse" gradientTransform="translate(-167277 263893) rotate(-50.6513) scale(159205 3848.57)">
<stop stop-color="#006D93"/>
<stop offset="0.09" stop-color="#005A78"/>
<stop offset="0.21" stop-color="#003B4F"/>
<stop offset="0.34" stop-color="#002734"/>
<stop offset="0.48" stop-color="#001A23"/>
<stop offset="0.62" stop-color="#000E12"/>
<stop offset="0.79"/>
<stop offset="1"/>
</radialGradient>
</defs>
</svg>
