<svg width="20" height="20" viewBox="0 0 20 20" fill="none" xmlns="http://www.w3.org/2000/svg">
<path d="M17.945 6.0525C18.7583 5.475 19.4425 4.75417 20 3.92417V3.92333C19.2558 4.24917 18.4642 4.46583 17.6375 4.57083C18.4875 4.06333 19.1367 3.26583 19.4417 2.305C18.6492 2.7775 17.7742 3.11083 16.8417 3.2975C16.0892 2.49583 15.0167 2 13.8467 2C11.5767 2 9.74917 3.8425 9.74917 6.10083C9.74917 6.42583 9.77667 6.73833 9.84417 7.03583C6.43583 6.86917 3.41917 5.23583 1.3925 2.74667C1.03917 3.36083 0.830833 4.06333 0.830833 4.81917C0.830833 6.23917 1.56167 7.4975 2.6525 8.22667C1.99333 8.21417 1.3475 8.0225 0.8 7.72167V7.76667C0.8 9.75917 2.22083 11.4142 4.085 11.7958C3.75083 11.8875 3.3875 11.9308 3.01 11.9308C2.7475 11.9308 2.4825 11.9158 2.23417 11.8608C2.765 13.4842 4.27333 14.6783 6.065 14.7175C4.67 15.8083 2.89833 16.4658 0.980833 16.4658C0.645 16.4658 0.3225 16.4508 0 16.41C1.81667 17.5808 3.96833 18.25 6.29 18.25C13.5258 18.25 18.2417 12.2133 17.945 6.0525Z" fill="white"/>
</svg>
