<svg width="32" height="32" viewBox="0 0 32 32" fill="none" xmlns="http://www.w3.org/2000/svg">
<rect width="32" height="32" rx="8" fill="white"/>
<g clip-path="url(#clip0_104_41)">
<path d="M16.1185 21.3309C14.3168 21.3309 12.5158 21.3316 10.7141 21.3303C10.093 21.3297 9.62676 20.9847 9.5024 20.4148C9.39991 19.9461 9.55302 19.5549 9.91485 19.2431C10.2923 18.9175 10.606 18.5388 10.8585 18.1082C11.2784 17.3908 11.4709 16.614 11.4722 15.786C11.4728 15.1354 11.464 14.4842 11.4772 13.8337C11.5215 11.6683 13.1995 9.74793 15.3405 9.40984C15.4498 9.39234 15.4755 9.35235 15.4723 9.25111C15.4655 9.05363 15.4667 8.85553 15.4717 8.65743C15.4817 8.28622 15.7654 8.00376 16.126 8.00001C16.4941 7.99626 16.7853 8.27935 16.7959 8.65743C16.8015 8.86053 16.8015 9.06363 16.7959 9.26673C16.7934 9.35485 16.8172 9.38984 16.9115 9.40859C18.7094 9.76105 19.9231 10.8059 20.5561 12.5201C20.7392 13.0169 20.7973 13.5381 20.7986 14.0687C20.8005 14.7817 20.7642 15.496 20.8186 16.2078C20.9098 17.3914 21.4066 18.3838 22.2853 19.1793C22.5446 19.4143 22.754 19.6693 22.7871 20.0286C22.8552 20.761 22.3334 21.3266 21.5847 21.3309C20.8611 21.3353 20.1374 21.3322 19.4137 21.3322C18.3157 21.3309 17.2171 21.3309 16.1185 21.3309Z" fill="#E64A19"/>
<path d="M18.5794 22.0015C18.4732 22.4983 18.2482 22.9258 17.8857 23.2701C17.1946 23.9263 16.3753 24.1562 15.4573 23.8938C14.5555 23.6363 13.9806 23.0251 13.715 22.124C13.685 22.0227 13.6956 21.9921 13.8112 21.9921C15.3717 21.9959 16.9315 21.9946 18.4919 21.9946C18.5175 21.9946 18.5432 21.9984 18.5794 22.0015Z" fill="#E64A19"/>
</g>
<defs>
<clipPath id="clip0_104_41">
<rect width="16" height="16" fill="white" transform="translate(8 8)"/>
</clipPath>
</defs>
</svg>
