<svg width="20" height="20" viewBox="0 0 20 20" fill="none" xmlns="http://www.w3.org/2000/svg">
<path d="M16.5551 5.15497C15.3643 4.23248 13.9953 3.67555 12.5624 3.24418C12.686 3.03154 12.85 2.99002 13.0627 3.0042C14.614 3.14323 16.1006 3.69187 17.3703 4.59398C17.4651 4.66097 17.543 4.749 17.5981 4.85118C18.7698 7.02325 19.5347 9.39112 19.8552 11.8381C19.9382 12.4963 19.9635 13.1626 20 13.8249C19.9952 13.9367 19.9499 14.0429 19.8724 14.1236C18.5378 15.5412 16.867 16.2015 14.9512 16.3189C14.8659 16.3323 14.7785 16.3217 14.699 16.2883C14.6194 16.2548 14.5507 16.1999 14.5006 16.1296C14.2089 15.7519 13.893 15.3904 13.573 15.0005C14.7284 14.6431 15.741 14.1378 16.5096 13.2386C12.1709 15.6688 7.84404 15.6688 3.529 13.2386C3.60191 13.4603 4.15074 13.9606 4.79577 14.3018C5.30207 14.5701 5.84077 14.7868 6.39669 15.04C6.06355 15.439 5.71724 15.8602 5.35979 16.2693C5.31827 16.3169 5.20486 16.3169 5.12689 16.3128C3.16143 16.2187 1.4562 15.5341 0.0932387 14.0851C0.0310292 14.0046 -0.00183676 13.9053 7.92752e-05 13.8036C0.0339948 11.9506 0.34598 10.1131 0.925598 8.35277C1.29341 7.17271 1.77285 6.03039 2.35742 4.94131C2.44504 4.78051 2.56836 4.64195 2.71791 4.53627C3.96697 3.66607 5.42201 3.13789 6.93843 3.0042C7.15311 2.98496 7.31715 3.02647 7.44474 3.24216C6.00684 3.67353 4.63881 4.23248 3.44293 5.16104C7.81197 3.17431 12.1827 3.17229 16.5551 5.15497ZM13.0799 12.4113C13.3118 12.4101 13.5412 12.363 13.7547 12.2726C13.9683 12.1822 14.1619 12.0504 14.3242 11.8848C14.4866 11.7192 14.6144 11.523 14.7005 11.3076C14.7866 11.0923 14.8291 10.862 14.8256 10.6301C14.8256 9.66409 14.0429 8.85097 13.1224 8.85603C12.6496 8.85468 12.1956 9.04072 11.8596 9.37341C11.5237 9.7061 11.3333 10.1583 11.3301 10.6311C11.3281 10.8629 11.3718 11.0928 11.4586 11.3077C11.5455 11.5226 11.6738 11.7183 11.8363 11.8836C11.9988 12.0489 12.1922 12.1806 12.4056 12.2711C12.619 12.3617 12.8481 12.4093 13.0799 12.4113ZM6.92527 12.4113C7.38915 12.4065 7.8325 12.2193 8.15939 11.8901C8.48629 11.5609 8.67044 11.1163 8.67201 10.6524C8.67322 10.4161 8.62758 10.182 8.53773 9.96352C8.44788 9.74504 8.31561 9.54653 8.14856 9.37948C7.98151 9.21243 7.78301 9.08016 7.56452 8.99031C7.34603 8.90046 7.11189 8.85482 6.87565 8.85603C5.95824 8.85603 5.17549 9.66611 5.17651 10.6331C5.1737 10.865 5.21679 11.0951 5.3033 11.3103C5.38982 11.5254 5.51804 11.7213 5.68059 11.8867C5.84314 12.0521 6.0368 12.1836 6.25042 12.2739C6.46404 12.3641 6.69339 12.4111 6.92527 12.4123V12.4113Z" fill="white"/>
</svg>
