<svg width="24" height="24" viewBox="0 0 24 24" fill="none" xmlns="http://www.w3.org/2000/svg">
<path d="M12 18.5845L7.07114 22.3478C6.82691 22.5476 6.56049 22.6422 6.27186 22.6315C5.98323 22.6209 5.72791 22.5374 5.50589 22.3811C5.28387 22.2257 5.11203 22.0147 4.99036 21.7483C4.86869 21.4819 4.86292 21.1933 4.97304 20.8824L6.87132 14.7213L2.04237 11.2911C1.77594 11.1135 1.60942 10.8804 1.54282 10.5918C1.47621 10.3031 1.48731 10.0367 1.57612 9.79249C1.66493 9.54826 1.82034 9.33157 2.04237 9.14241C2.26439 8.95325 2.53081 8.85911 2.84164 8.86H8.8029L10.7345 2.4658C10.8455 2.15497 11.0178 1.91607 11.2513 1.74911C11.4849 1.58216 11.7345 1.49912 12 1.50001C12.2664 1.50001 12.5164 1.58349 12.75 1.75045C12.9836 1.91741 13.1554 2.15586 13.2655 2.4658L15.1971 8.86H21.1584C21.4692 8.86 21.7356 8.95458 21.9576 9.14374C22.1797 9.3329 22.3351 9.54915 22.4239 9.79249C22.5127 10.0367 22.5238 10.3031 22.4572 10.5918C22.3906 10.8804 22.2241 11.1135 21.9576 11.2911L17.1287 14.7213L19.027 20.8824C19.138 21.1933 19.1326 21.4819 19.011 21.7483C18.8893 22.0147 18.717 22.2257 18.4941 22.3811C18.2721 22.5365 18.0168 22.62 17.7281 22.6315C17.4395 22.6431 17.1731 22.5485 16.9289 22.3478L12 18.5845Z" fill="white"/>
</svg>
