<svg width="4" height="5" viewBox="0 0 4 5" fill="none" xmlns="http://www.w3.org/2000/svg">
<path d="M1.22285 4.77743C1.12081 4.73852 1.05497 4.65469 0.981097 4.58127C0.857901 4.45909 0.858014 4.32017 0.980532 4.19754C1.51721 3.66064 2.05389 3.12362 2.59169 2.58774C2.61952 2.56002 2.61658 2.5478 2.59079 2.52189C2.05321 1.9859 1.51653 1.44888 0.979853 0.911976C0.884826 0.816948 0.860729 0.703255 0.926457 0.602572C0.986527 0.510486 1.06651 0.432428 1.15746 0.37066C1.24502 0.311268 1.35306 0.324843 1.43519 0.39238C1.44741 0.402449 1.45929 0.413196 1.47049 0.424395C2.11678 1.07058 2.76308 1.71677 3.40927 2.36306C3.50576 2.45956 3.52601 2.5719 3.46685 2.67722C3.4518 2.70392 3.43076 2.72586 3.40927 2.74736C2.76308 3.39366 2.11667 4.03962 1.47094 4.68648C1.42716 4.73037 1.3767 4.75967 1.31833 4.77755C1.28654 4.77743 1.25475 4.77743 1.22285 4.77743Z" fill="white"/>
</svg>
