<svg width="16" height="16" viewBox="0 0 16 16" fill="none" xmlns="http://www.w3.org/2000/svg">
<path d="M8 12.3897L4.71409 14.8985C4.55128 15.0317 4.37366 15.0948 4.18124 15.0877C3.98882 15.0806 3.81861 15.0249 3.67059 14.9207C3.52258 14.8171 3.40802 14.6765 3.32691 14.4989C3.24579 14.3213 3.24195 14.1288 3.31536 13.9216L4.58088 9.81423L1.36158 7.52742C1.18396 7.40901 1.07295 7.25359 1.02855 7.06117C0.984141 6.86876 0.991542 6.69114 1.05075 6.52832C1.10995 6.36551 1.21356 6.22105 1.36158 6.09494C1.50959 5.96883 1.68721 5.90607 1.89443 5.90667H5.8686L7.15632 1.64387C7.23033 1.43665 7.34519 1.27738 7.5009 1.16608C7.65661 1.05477 7.82297 0.999413 8 1C8.17762 1 8.34428 1.05566 8.49999 1.16696C8.6557 1.27827 8.77026 1.43724 8.84368 1.64387L10.1314 5.90667H14.1056C14.3128 5.90667 14.4904 5.96972 14.6384 6.09583C14.7864 6.22194 14.89 6.3661 14.9493 6.52832C15.0085 6.69114 15.0159 6.86876 14.9715 7.06117C14.9271 7.25359 14.816 7.40901 14.6384 7.52742L11.4191 9.81423L12.6846 13.9216C12.7586 14.1288 12.7551 14.3213 12.674 14.4989C12.5929 14.6765 12.478 14.8171 12.3294 14.9207C12.1814 15.0243 12.0112 15.08 11.8188 15.0877C11.6263 15.0954 11.4487 15.0323 11.2859 14.8985L8 12.3897Z" fill="#FFEB3B"/>
</svg>
