<svg width="182" height="91" viewBox="0 0 182 91" fill="none" xmlns="http://www.w3.org/2000/svg">
<path d="M5.51562 47.5391H2.47656V46.3125H5.51562C6.10417 46.3125 6.58073 46.2188 6.94531 46.0312C7.3099 45.8438 7.57552 45.5833 7.74219 45.25C7.91406 44.9167 8 44.5365 8 44.1094C8 43.7188 7.91406 43.3516 7.74219 43.0078C7.57552 42.6641 7.3099 42.388 6.94531 42.1797C6.58073 41.9661 6.10417 41.8594 5.51562 41.8594H2.82812V52H1.32031V40.625H5.51562C6.375 40.625 7.10156 40.7734 7.69531 41.0703C8.28906 41.3672 8.73958 41.7786 9.04688 42.3047C9.35417 42.8255 9.50781 43.4219 9.50781 44.0938C9.50781 44.8229 9.35417 45.4453 9.04688 45.9609C8.73958 46.4766 8.28906 46.8698 7.69531 47.1406C7.10156 47.4062 6.375 47.5391 5.51562 47.5391ZM10.7031 47.8672V47.6875C10.7031 47.0781 10.7917 46.513 10.9688 45.9922C11.1458 45.4661 11.401 45.0104 11.7344 44.625C12.0677 44.2344 12.4714 43.9323 12.9453 43.7188C13.4193 43.5 13.9505 43.3906 14.5391 43.3906C15.1328 43.3906 15.6667 43.5 16.1406 43.7188C16.6198 43.9323 17.026 44.2344 17.3594 44.625C17.6979 45.0104 17.9557 45.4661 18.1328 45.9922C18.3099 46.513 18.3984 47.0781 18.3984 47.6875V47.8672C18.3984 48.4766 18.3099 49.0417 18.1328 49.5625C17.9557 50.0833 17.6979 50.5391 17.3594 50.9297C17.026 51.3151 16.6224 51.6172 16.1484 51.8359C15.6797 52.0495 15.1484 52.1562 14.5547 52.1562C13.9609 52.1562 13.4271 52.0495 12.9531 51.8359C12.4792 51.6172 12.0729 51.3151 11.7344 50.9297C11.401 50.5391 11.1458 50.0833 10.9688 49.5625C10.7917 49.0417 10.7031 48.4766 10.7031 47.8672ZM12.1484 47.6875V47.8672C12.1484 48.2891 12.1979 48.6875 12.2969 49.0625C12.3958 49.4323 12.5443 49.7604 12.7422 50.0469C12.9453 50.3333 13.1979 50.5599 13.5 50.7266C13.8021 50.888 14.1536 50.9688 14.5547 50.9688C14.9505 50.9688 15.2969 50.888 15.5938 50.7266C15.8958 50.5599 16.1458 50.3333 16.3438 50.0469C16.5417 49.7604 16.6901 49.4323 16.7891 49.0625C16.8932 48.6875 16.9453 48.2891 16.9453 47.8672V47.6875C16.9453 47.2708 16.8932 46.8776 16.7891 46.5078C16.6901 46.1328 16.5391 45.8021 16.3359 45.5156C16.138 45.224 15.888 44.9948 15.5859 44.8281C15.2891 44.6615 14.9401 44.5781 14.5391 44.5781C14.1432 44.5781 13.7943 44.6615 13.4922 44.8281C13.1953 44.9948 12.9453 45.224 12.7422 45.5156C12.5443 45.8021 12.3958 46.1328 12.2969 46.5078C12.1979 46.8776 12.1484 47.2708 12.1484 47.6875ZM22.3516 50.5L24.5234 43.5469H25.4766L25.2891 44.9297L23.0781 52H22.1484L22.3516 50.5ZM20.8906 43.5469L22.7422 50.5781L22.875 52H21.8984L19.4453 43.5469H20.8906ZM27.5547 50.5234L29.3203 43.5469H30.7578L28.3047 52H27.3359L27.5547 50.5234ZM25.6875 43.5469L27.8125 50.3828L28.0547 52H27.1328L24.8594 44.9141L24.6719 43.5469H25.6875ZM35.75 52.1562C35.1615 52.1562 34.6276 52.0573 34.1484 51.8594C33.6745 51.6562 33.2656 51.3724 32.9219 51.0078C32.5833 50.6432 32.3229 50.2109 32.1406 49.7109C31.9583 49.2109 31.8672 48.6641 31.8672 48.0703V47.7422C31.8672 47.0547 31.9688 46.4427 32.1719 45.9062C32.375 45.3646 32.651 44.9062 33 44.5312C33.349 44.1562 33.7448 43.8724 34.1875 43.6797C34.6302 43.487 35.0885 43.3906 35.5625 43.3906C36.1667 43.3906 36.6875 43.4948 37.125 43.7031C37.5677 43.9115 37.9297 44.2031 38.2109 44.5781C38.4922 44.9479 38.7005 45.3854 38.8359 45.8906C38.9714 46.3906 39.0391 46.9375 39.0391 47.5312V48.1797H32.7266V47H37.5938V46.8906C37.5729 46.5156 37.4948 46.151 37.3594 45.7969C37.2292 45.4427 37.0208 45.151 36.7344 44.9219C36.4479 44.6927 36.0573 44.5781 35.5625 44.5781C35.2344 44.5781 34.9323 44.6484 34.6562 44.7891C34.3802 44.9245 34.1432 45.1276 33.9453 45.3984C33.7474 45.6693 33.5938 46 33.4844 46.3906C33.375 46.7812 33.3203 47.2318 33.3203 47.7422V48.0703C33.3203 48.4714 33.375 48.849 33.4844 49.2031C33.599 49.5521 33.763 49.8594 33.9766 50.125C34.1953 50.3906 34.4583 50.599 34.7656 50.75C35.0781 50.901 35.4323 50.9766 35.8281 50.9766C36.3385 50.9766 36.7708 50.8724 37.125 50.6641C37.4792 50.4557 37.7891 50.1771 38.0547 49.8281L38.9297 50.5234C38.7474 50.7995 38.5156 51.0625 38.2344 51.3125C37.9531 51.5625 37.6068 51.7656 37.1953 51.9219C36.7891 52.0781 36.3073 52.1562 35.75 52.1562ZM42.1719 44.875V52H40.7266V43.5469H42.1328L42.1719 44.875ZM44.8125 43.5L44.8047 44.8438C44.6849 44.8177 44.5703 44.8021 44.4609 44.7969C44.3568 44.7865 44.237 44.7812 44.1016 44.7812C43.7682 44.7812 43.474 44.8333 43.2188 44.9375C42.9635 45.0417 42.7474 45.1875 42.5703 45.375C42.3932 45.5625 42.2526 45.7865 42.1484 46.0469C42.0495 46.3021 41.9844 46.5833 41.9531 46.8906L41.5469 47.125C41.5469 46.6146 41.5964 46.1354 41.6953 45.6875C41.7995 45.2396 41.9583 44.8438 42.1719 44.5C42.3854 44.151 42.6562 43.8802 42.9844 43.6875C43.3177 43.4896 43.7135 43.3906 44.1719 43.3906C44.276 43.3906 44.3958 43.4036 44.5312 43.4297C44.6667 43.4505 44.7604 43.474 44.8125 43.5ZM49.5 52.1562C48.9115 52.1562 48.3776 52.0573 47.8984 51.8594C47.4245 51.6562 47.0156 51.3724 46.6719 51.0078C46.3333 50.6432 46.0729 50.2109 45.8906 49.7109C45.7083 49.2109 45.6172 48.6641 45.6172 48.0703V47.7422C45.6172 47.0547 45.7188 46.4427 45.9219 45.9062C46.125 45.3646 46.401 44.9062 46.75 44.5312C47.099 44.1562 47.4948 43.8724 47.9375 43.6797C48.3802 43.487 48.8385 43.3906 49.3125 43.3906C49.9167 43.3906 50.4375 43.4948 50.875 43.7031C51.3177 43.9115 51.6797 44.2031 51.9609 44.5781C52.2422 44.9479 52.4505 45.3854 52.5859 45.8906C52.7214 46.3906 52.7891 46.9375 52.7891 47.5312V48.1797H46.4766V47H51.3438V46.8906C51.3229 46.5156 51.2448 46.151 51.1094 45.7969C50.9792 45.4427 50.7708 45.151 50.4844 44.9219C50.1979 44.6927 49.8073 44.5781 49.3125 44.5781C48.9844 44.5781 48.6823 44.6484 48.4062 44.7891C48.1302 44.9245 47.8932 45.1276 47.6953 45.3984C47.4974 45.6693 47.3438 46 47.2344 46.3906C47.125 46.7812 47.0703 47.2318 47.0703 47.7422V48.0703C47.0703 48.4714 47.125 48.849 47.2344 49.2031C47.349 49.5521 47.513 49.8594 47.7266 50.125C47.9453 50.3906 48.2083 50.599 48.5156 50.75C48.8281 50.901 49.1823 50.9766 49.5781 50.9766C50.0885 50.9766 50.5208 50.8724 50.875 50.6641C51.2292 50.4557 51.5391 50.1771 51.8047 49.8281L52.6797 50.5234C52.4974 50.7995 52.2656 51.0625 51.9844 51.3125C51.7031 51.5625 51.3568 51.7656 50.9453 51.9219C50.5391 52.0781 50.0573 52.1562 49.5 52.1562ZM59.8047 50.3594V40H61.2578V52H59.9297L59.8047 50.3594ZM54.1172 47.8672V47.7031C54.1172 47.0573 54.1953 46.4714 54.3516 45.9453C54.513 45.4141 54.7396 44.9583 55.0312 44.5781C55.3281 44.1979 55.6797 43.9062 56.0859 43.7031C56.4974 43.4948 56.9557 43.3906 57.4609 43.3906C57.9922 43.3906 58.4557 43.4844 58.8516 43.6719C59.2526 43.8542 59.5911 44.1224 59.8672 44.4766C60.1484 44.8255 60.3698 45.2474 60.5312 45.7422C60.6927 46.237 60.8047 46.7969 60.8672 47.4219V48.1406C60.8099 48.7604 60.6979 49.3177 60.5312 49.8125C60.3698 50.3073 60.1484 50.7292 59.8672 51.0781C59.5911 51.4271 59.2526 51.6953 58.8516 51.8828C58.4505 52.0651 57.9818 52.1562 57.4453 52.1562C56.9505 52.1562 56.4974 52.0495 56.0859 51.8359C55.6797 51.6224 55.3281 51.3229 55.0312 50.9375C54.7396 50.5521 54.513 50.099 54.3516 49.5781C54.1953 49.0521 54.1172 48.4818 54.1172 47.8672ZM55.5703 47.7031V47.8672C55.5703 48.2891 55.612 48.6849 55.6953 49.0547C55.7839 49.4245 55.9193 49.75 56.1016 50.0312C56.2839 50.3125 56.5156 50.5339 56.7969 50.6953C57.0781 50.8516 57.4141 50.9297 57.8047 50.9297C58.2839 50.9297 58.6771 50.8281 58.9844 50.625C59.2969 50.4219 59.5469 50.1536 59.7344 49.8203C59.9219 49.487 60.0677 49.125 60.1719 48.7344V46.8516C60.1094 46.5651 60.0182 46.2891 59.8984 46.0234C59.7839 45.7526 59.6328 45.513 59.4453 45.3047C59.263 45.0911 59.0365 44.9219 58.7656 44.7969C58.5 44.6719 58.1849 44.6094 57.8203 44.6094C57.4245 44.6094 57.0833 44.6927 56.7969 44.8594C56.5156 45.0208 56.2839 45.2448 56.1016 45.5312C55.9193 45.8125 55.7839 46.1406 55.6953 46.5156C55.612 46.8854 55.5703 47.2812 55.5703 47.7031ZM67.4688 40H68.9219V50.3594L68.7969 52H67.4688V40ZM74.6328 47.7031V47.8672C74.6328 48.4818 74.5599 49.0521 74.4141 49.5781C74.2682 50.099 74.0547 50.5521 73.7734 50.9375C73.4922 51.3229 73.1484 51.6224 72.7422 51.8359C72.3359 52.0495 71.8698 52.1562 71.3438 52.1562C70.8073 52.1562 70.3359 52.0651 69.9297 51.8828C69.5286 51.6953 69.1901 51.4271 68.9141 51.0781C68.638 50.7292 68.4167 50.3073 68.25 49.8125C68.0885 49.3177 67.9766 48.7604 67.9141 48.1406V47.4219C67.9766 46.7969 68.0885 46.237 68.25 45.7422C68.4167 45.2474 68.638 44.8255 68.9141 44.4766C69.1901 44.1224 69.5286 43.8542 69.9297 43.6719C70.3307 43.4844 70.7969 43.3906 71.3281 43.3906C71.8594 43.3906 72.3307 43.4948 72.7422 43.7031C73.1536 43.9062 73.4974 44.1979 73.7734 44.5781C74.0547 44.9583 74.2682 45.4141 74.4141 45.9453C74.5599 46.4714 74.6328 47.0573 74.6328 47.7031ZM73.1797 47.8672V47.7031C73.1797 47.2812 73.1406 46.8854 73.0625 46.5156C72.9844 46.1406 72.8594 45.8125 72.6875 45.5312C72.5156 45.2448 72.2891 45.0208 72.0078 44.8594C71.7266 44.6927 71.3802 44.6094 70.9688 44.6094C70.6042 44.6094 70.2865 44.6719 70.0156 44.7969C69.75 44.9219 69.5234 45.0911 69.3359 45.3047C69.1484 45.513 68.9948 45.7526 68.875 46.0234C68.7604 46.2891 68.6745 46.5651 68.6172 46.8516V48.7344C68.7005 49.099 68.8359 49.4505 69.0234 49.7891C69.2161 50.1224 69.4714 50.3958 69.7891 50.6094C70.112 50.8229 70.5104 50.9297 70.9844 50.9297C71.375 50.9297 71.7083 50.8516 71.9844 50.6953C72.2656 50.5339 72.4922 50.3125 72.6641 50.0312C72.8411 49.75 72.9714 49.4245 73.0547 49.0547C73.138 48.6849 73.1797 48.2891 73.1797 47.8672ZM78.7422 51.125L81.0938 43.5469H82.6406L79.25 53.3047C79.1719 53.513 79.0677 53.737 78.9375 53.9766C78.8125 54.2214 78.651 54.4531 78.4531 54.6719C78.2552 54.8906 78.0156 55.0677 77.7344 55.2031C77.4583 55.3438 77.1276 55.4141 76.7422 55.4141C76.6276 55.4141 76.4818 55.3984 76.3047 55.3672C76.1276 55.3359 76.0026 55.3099 75.9297 55.2891L75.9219 54.1172C75.9635 54.1224 76.0286 54.1276 76.1172 54.1328C76.2109 54.1432 76.276 54.1484 76.3125 54.1484C76.6406 54.1484 76.9193 54.1042 77.1484 54.0156C77.3776 53.9323 77.5703 53.7891 77.7266 53.5859C77.888 53.388 78.026 53.1146 78.1406 52.7656L78.7422 51.125ZM77.0156 43.5469L79.2109 50.1094L79.5859 51.6328L78.5469 52.1641L75.4375 43.5469H77.0156Z" fill="white"/>
<g clip-path="url(#clip0_782_6174)">
<path d="M121.887 37.6486C121.887 37.087 121.887 36.537 121.887 35.9987V15.6845C121.887 15.248 121.887 14.8057 121.887 14.3605V3.95457C122.332 3.86145 122.718 3.77998 123.079 3.70723C123.439 3.63448 123.771 3.56173 124.105 3.4948L125.131 3.28238C125.491 3.20672 125.878 3.12524 126.323 3.03503V20.1716C126.323 20.5993 126.323 21.0242 126.323 21.452V38.5885C125.878 38.4954 125.491 38.4139 125.131 38.3383C124.771 38.2626 124.439 38.1928 124.105 38.1229C123.773 38.0531 123.439 37.9833 123.079 37.9076C122.718 37.8319 122.332 37.7505 121.887 37.6573V37.6486Z" fill="white"/>
<path d="M128.145 9.4049C128.145 8.83455 128.179 8.28749 128.246 7.7637C128.313 7.23991 128.415 6.73941 128.549 6.26509C128.682 5.79077 128.845 5.33682 129.037 4.91197C129.229 4.48421 129.453 4.08264 129.703 3.71017C129.953 3.33479 130.232 2.98851 130.537 2.66842C130.842 2.34833 131.171 2.05734 131.525 1.79835C131.88 1.53937 132.258 1.31239 132.662 1.12034C133.063 0.928284 133.488 0.768238 133.933 0.648931C133.773 1.11452 133.645 1.57138 133.549 2.02242C133.453 2.47345 133.389 2.91867 133.357 3.35516C133.325 3.79456 133.325 4.22523 133.357 4.65299C133.389 5.08075 133.453 5.49978 133.549 5.9159C133.645 6.33202 133.773 6.74232 133.93 7.14971C133.639 7.26901 133.389 7.47853 133.188 7.75206C132.988 8.02559 132.834 8.36897 132.732 8.7589C132.627 9.15174 132.575 9.59113 132.575 10.0684V18.8505C132.575 19.2841 132.575 19.7148 132.575 20.1454V31.5087C132.575 31.9685 132.63 32.4079 132.738 32.8007C132.845 33.1936 132.999 33.5457 133.2 33.8308C133.401 34.1189 133.645 34.3401 133.93 34.4768C134.09 34.9308 134.217 35.3847 134.313 35.8358C134.409 36.2868 134.473 36.7349 134.505 37.1772C134.537 37.6195 134.537 38.0589 134.505 38.4896C134.473 38.9203 134.409 39.3451 134.313 39.7612C134.217 40.1774 134.09 40.5848 133.93 40.9805C133.488 40.8612 133.066 40.7099 132.668 40.5266C132.27 40.3432 131.892 40.1366 131.537 39.898C131.182 39.6594 130.854 39.3946 130.549 39.1007C130.243 38.8068 129.964 38.4867 129.714 38.1404C129.464 37.7941 129.241 37.4188 129.046 37.0201C128.851 36.6214 128.685 36.1937 128.554 35.7397C128.421 35.2858 128.319 34.8056 128.249 34.2993C128.179 33.793 128.145 33.2576 128.145 32.693V29.5823C128.145 29.0906 128.145 28.6133 128.145 28.1448V10.9995C128.145 10.4816 128.145 9.94906 128.145 9.40199V9.4049ZM136.084 15.2626V9.70753C136.084 9.24485 136.034 8.82582 135.938 8.46499C135.842 8.10416 135.703 7.80153 135.523 7.57165C135.342 7.34176 135.122 7.18463 134.863 7.11188C134.703 6.68994 134.575 6.268 134.479 5.84606C134.383 5.42121 134.319 4.99636 134.287 4.56278C134.255 4.13211 134.255 3.69562 134.287 3.25332C134.319 2.81101 134.383 2.35997 134.479 1.90311C134.575 1.44334 134.703 0.977753 134.863 0.497615C135.299 0.439416 135.712 0.427777 136.104 0.459786C136.497 0.494705 136.866 0.576183 137.215 0.70131C137.561 0.829347 137.883 1.00394 138.183 1.22219C138.479 1.44334 138.752 1.70814 138.997 2.01951C139.241 2.33087 139.459 2.68588 139.648 3.08454C139.837 3.4832 139.997 3.92551 140.125 4.41147C140.253 4.89451 140.351 5.42121 140.418 5.98574C140.485 6.55026 140.517 7.15262 140.517 7.7928V15.0123C140.072 15.0385 139.686 15.0589 139.325 15.0822C138.965 15.1054 138.633 15.1229 138.299 15.1404C137.965 15.1578 137.633 15.1782 137.273 15.1986C136.912 15.2189 136.526 15.2422 136.081 15.2684L136.084 15.2626ZM138.686 41.19C138.648 40.7826 138.613 40.4422 138.584 40.125C138.555 39.8078 138.526 39.5139 138.494 39.1967C138.465 38.8795 138.43 38.542 138.392 38.1346C138.232 38.67 138.026 39.1327 137.782 39.5226C137.537 39.9126 137.255 40.2298 136.947 40.4771C136.639 40.7244 136.305 40.9019 135.953 41.0096C135.601 41.1173 135.235 41.1609 134.863 41.1376C135.023 40.739 135.151 40.3258 135.247 39.9067C135.342 39.4877 135.406 39.057 135.438 38.6206C135.47 38.1841 135.47 37.7418 135.438 37.2936C135.406 36.8455 135.342 36.3945 135.247 35.9376C135.151 35.4808 135.023 35.0239 134.863 34.567C135.127 34.4972 135.354 34.3401 135.534 34.1102C135.715 33.8803 135.854 33.5777 135.944 33.2168C136.037 32.856 136.084 32.4341 136.084 31.9714C136.084 31.401 136.084 30.886 136.084 30.4088V24.8392C135.729 24.8246 135.462 24.813 135.194 24.8013C134.927 24.7897 134.659 24.778 134.305 24.7635V18.2802C134.802 18.2685 135.249 18.2569 135.668 18.2453C136.087 18.2336 136.473 18.2249 136.851 18.2132C137.229 18.2045 137.595 18.1929 137.973 18.1841C138.351 18.1754 138.738 18.1638 139.157 18.1521C139.575 18.1405 140.023 18.1289 140.52 18.1172C140.52 18.6701 140.52 19.2055 140.52 19.7264V31.7182C140.52 32.1372 140.52 32.5563 140.52 32.984V41.58C140.154 41.5014 139.878 41.4461 139.604 41.3879C139.331 41.3297 139.055 41.2715 138.689 41.1958L138.686 41.19Z" fill="white"/>
<path d="M143.148 41.6498V38.315C143.148 37.7767 143.148 37.2471 143.148 36.7262V24.0651C143.148 23.6286 143.148 23.1979 143.148 22.7644V9.41652C143.148 8.93638 143.148 8.45043 143.148 7.95865V0C143.593 0.0931176 143.98 0.174596 144.34 0.247344C144.701 0.320092 145.032 0.39284 145.367 0.459768C145.701 0.526697 146.032 0.599445 146.393 0.672193C146.753 0.744941 147.14 0.829329 147.585 0.919537V5.77911C147.585 6.29417 147.585 6.8005 147.585 7.29809V20.8118C147.585 21.2395 147.585 21.6644 147.585 22.0922V35.8474C147.585 36.3624 147.585 36.8833 147.585 37.4129V40.707C147.14 40.8001 146.753 40.8816 146.393 40.9572C146.032 41.0329 145.701 41.1027 145.367 41.1725C145.035 41.2424 144.701 41.3122 144.34 41.3879C143.98 41.4635 143.593 41.545 143.148 41.6381V41.6498ZM151.088 39.9766V29.1778C151.088 28.7472 151.088 28.3107 151.088 27.8625V23.4104C150.556 23.4249 150.157 23.4365 149.759 23.4482C149.361 23.4598 148.963 23.4715 148.431 23.486V22.0456C148.431 21.6033 148.431 21.193 148.431 20.7943V16.9154C148.963 16.9358 149.361 16.9532 149.759 16.9678C150.157 16.9823 150.556 16.9998 151.088 17.0202V12.5534C151.088 12.1053 151.088 11.6688 151.088 11.241V1.65575C151.532 1.74887 151.919 1.83034 152.28 1.90309C152.64 1.97875 152.971 2.04859 153.306 2.11552C153.637 2.18535 153.972 2.25519 154.332 2.32794C154.692 2.4036 155.079 2.48508 155.524 2.57528C155.524 3.1369 155.524 3.68688 155.524 4.22521V20.8031C155.524 21.225 155.524 21.644 155.524 22.066V39.0337C155.079 39.1269 154.692 39.2083 154.332 39.284C153.972 39.3597 153.64 39.4295 153.306 39.4993C152.974 39.5692 152.64 39.639 152.28 39.7147C151.919 39.7903 151.532 39.8718 151.088 39.9649V39.9766Z" fill="white"/>
<path d="M157.523 8.9335V2.99725C157.942 3.08455 158.259 3.15148 158.573 3.2155C158.887 3.28243 159.204 3.34644 159.622 3.43374V9.2245C159.204 9.1663 158.887 9.12265 158.573 9.079C158.259 9.03535 157.942 8.9917 157.523 8.9335ZM160.497 37.9891V22.0922C160.497 21.6615 160.497 21.2309 160.497 20.8031V3.61707C160.994 3.72183 161.448 3.81494 161.875 3.90515C162.303 3.99536 162.701 4.07684 163.088 4.15831C163.474 4.23979 163.843 4.31545 164.216 4.39402C164.588 4.47259 164.96 4.54824 165.343 4.62972C165.727 4.7112 166.128 4.79268 166.556 4.88289C166.983 4.97309 167.437 5.06621 167.934 5.17097V10.3797C167.533 10.3244 167.201 10.2779 166.89 10.2342C166.579 10.1906 166.291 10.1499 165.977 10.1091C165.666 10.0655 165.332 10.0189 164.934 9.96362V13.2169C164.934 13.7349 164.934 14.2383 164.934 14.733V37.055C164.489 37.1481 164.102 37.2296 163.742 37.3053C163.381 37.3809 163.05 37.4508 162.715 37.5206C162.381 37.5905 162.05 37.6603 161.689 37.736C161.329 37.8116 160.942 37.8931 160.497 37.9862V37.9891Z" fill="white"/>
<path d="M173.398 35.2683V26.2447C173.288 25.7209 173.177 25.2145 173.072 24.7199C172.968 24.2252 172.866 23.7421 172.767 23.2736C172.668 22.8051 172.572 22.3424 172.479 21.8914C172.386 21.4404 172.293 20.9981 172.203 20.5645C172.113 20.128 172.026 19.7002 171.939 19.2754C171.851 18.8505 171.767 18.4315 171.68 18.0154C171.593 17.5993 171.511 17.1831 171.427 16.767C171.343 16.3509 171.258 15.9348 171.174 15.5187C171.09 15.1025 171.006 14.6806 170.921 14.2528C170.837 13.828 170.75 13.3944 170.662 12.955C170.575 12.5156 170.488 12.0675 170.398 11.6106C170.308 11.1538 170.215 10.6853 170.122 10.2022C170.029 9.71918 169.933 9.22741 169.834 8.71526C169.735 8.20311 169.633 7.67641 169.529 7.13226C169.424 6.58519 169.317 6.02067 169.203 5.43286C169.761 5.54926 170.229 5.64529 170.662 5.7384C171.099 5.82861 171.503 5.913 171.936 6.00321C172.369 6.09341 172.837 6.19235 173.395 6.30875C173.511 6.89655 173.628 7.46399 173.735 8.01106C173.846 8.55812 173.953 9.08482 174.055 9.59697C174.16 10.1091 174.261 10.6038 174.357 11.0839C174.456 11.5641 174.552 12.0326 174.648 12.4894C174.744 12.9463 174.834 13.3915 174.927 13.8309C175.017 14.2703 175.107 14.701 175.198 15.1258C175.288 15.5507 175.375 15.9697 175.465 16.3887C175.552 16.8049 175.642 17.2181 175.73 17.6342C175.817 18.0474 175.907 18.4606 175.997 18.8767C176.087 19.2928 176.177 19.709 176.267 20.1309C176.357 20.5528 176.45 20.9777 176.546 21.4113C176.642 21.8448 176.738 22.2813 176.837 22.7295C176.936 23.1776 177.038 23.6315 177.139 24.1C177.244 24.5656 177.352 25.0429 177.459 25.5346C177.57 26.0235 177.683 26.5269 177.799 27.0449V34.3459C177.357 34.439 176.974 34.5205 176.616 34.5961C176.259 34.6718 175.927 34.7416 175.596 34.8115C175.264 34.8813 174.936 34.9512 174.575 35.0268C174.215 35.1025 173.831 35.1839 173.392 35.2771L173.398 35.2683ZM176.293 15.056C176.389 14.5206 176.48 14.0346 176.564 13.5777C176.648 13.1209 176.727 12.696 176.802 12.2857C176.878 11.8754 176.95 11.4826 177.023 11.0927C177.096 10.6998 177.169 10.3099 177.244 9.90542C177.32 9.50094 177.398 9.08482 177.482 8.64251C177.567 8.2002 177.657 7.72879 177.753 7.21956C178.32 7.33886 178.791 7.43489 179.233 7.52801C179.674 7.62113 180.081 7.70551 180.523 7.79572C180.965 7.88884 181.436 7.98487 182.003 8.10417C181.878 8.60177 181.762 9.079 181.645 9.54459C181.532 10.0102 181.422 10.4583 181.314 10.8977C181.206 11.3342 181.105 11.762 181.003 12.1781C180.901 12.5971 180.805 13.0045 180.706 13.409C180.608 13.8134 180.515 14.2121 180.422 14.6079C180.329 15.0036 180.235 15.3994 180.142 15.7951C180.049 16.1909 179.956 16.5895 179.863 16.994C179.77 17.3985 179.674 17.8088 179.578 18.2249C179.483 18.6439 179.384 19.0717 179.282 19.514C179.18 19.9563 179.078 20.4103 178.971 20.8846C178.863 21.3589 178.753 21.8478 178.64 22.3599C178.526 22.872 178.407 23.4075 178.282 23.9691C178.169 23.4744 178.064 23.0146 177.962 22.5752C177.863 22.1387 177.767 21.7226 177.677 21.324C177.587 20.9224 177.5 20.5354 177.413 20.1542C177.326 19.7701 177.241 19.3918 177.157 19.0048C177.07 18.6177 176.982 18.2249 176.892 17.8146C176.802 17.4043 176.706 16.9765 176.607 16.5197C176.509 16.0628 176.401 15.5798 176.288 15.0531L176.293 15.056Z" fill="white"/>
<path d="M116.164 72.8646V63.7652C116.164 63.3084 116.164 62.8602 116.164 62.4121V41.5683C116.609 41.6934 116.995 41.8011 117.356 41.9029C117.716 42.0048 118.048 42.0979 118.382 42.191C118.714 42.2841 119.048 42.3773 119.408 42.4791C119.769 42.5809 120.155 42.6886 120.6 42.8137V57.4419C120.6 57.8755 120.6 58.3091 120.6 58.7427V75.9665C120.155 75.6552 119.769 75.3846 119.408 75.1343C119.048 74.8811 118.716 74.6513 118.382 74.4185C118.051 74.1857 117.716 73.9529 117.356 73.7026C116.995 73.4495 116.609 73.1788 116.164 72.8704V72.8646ZM121.449 76.5602V70.976C121.842 71.2234 122.188 71.4387 122.504 71.6395C122.824 71.8403 123.118 72.0265 123.414 72.2127C123.708 72.399 124.004 72.5823 124.324 72.786C124.644 72.9868 124.987 73.2021 125.38 73.4495V79.3071C124.987 79.0336 124.644 78.7921 124.324 78.568C124.004 78.3439 123.711 78.1373 123.414 77.9337C123.121 77.727 122.824 77.5204 122.504 77.2993C122.185 77.0752 121.842 76.8366 121.449 76.5602Z" fill="white"/>
<path d="M102 42.4762V37.6108C102.538 37.7621 103.052 37.9047 103.541 38.0414C104.032 38.1782 104.5 38.3092 104.954 38.4372C105.407 38.5652 105.843 38.6845 106.268 38.8039C106.692 38.9232 107.108 39.0396 107.518 39.153C107.928 39.2665 108.332 39.38 108.736 39.4935C109.14 39.607 109.544 39.7205 109.954 39.834C110.364 39.9475 110.779 40.0638 111.204 40.1832C111.628 40.3025 112.067 40.4247 112.518 40.5498C112.971 40.6778 113.439 40.8088 113.931 40.9456C114.422 41.0823 114.934 41.2249 115.471 41.3762V46.5443C114.934 46.3871 114.419 46.2387 113.931 46.0932C113.439 45.9477 112.971 45.811 112.518 45.6771C112.064 45.5432 111.628 45.4123 111.204 45.2872C110.779 45.1591 110.364 45.0369 109.954 44.9118C109.544 44.7896 109.14 44.6674 108.736 44.5451C108.332 44.4229 107.928 44.3007 107.518 44.1756C107.108 44.0504 106.692 43.9253 106.268 43.7944C105.843 43.6634 105.404 43.5296 104.954 43.3899C104.5 43.2502 104.032 43.1047 103.541 42.9534C103.049 42.8021 102.538 42.642 102 42.4733V42.4762Z" fill="white"/>
<path d="M164.414 47.3503V41.8971C164.955 41.7487 165.475 41.609 165.978 41.4723C166.481 41.3355 166.966 41.2046 167.437 41.0765C167.908 40.9485 168.365 40.8234 168.81 40.7041C169.254 40.5818 169.688 40.4654 170.115 40.349C170.539 40.2326 170.958 40.1192 171.371 40.0086C171.784 39.8951 172.193 39.7845 172.598 39.6739C173.004 39.5634 173.409 39.4528 173.816 39.3422C174.223 39.2316 174.63 39.121 175.042 39.0076C175.455 38.8941 175.874 38.7806 176.298 38.6671C176.723 38.5536 177.159 38.4343 177.603 38.3121C178.048 38.1899 178.505 38.0677 178.976 37.9396C179.447 37.8116 179.932 37.6806 180.435 37.5439C180.938 37.4071 181.458 37.2674 181.999 37.119V41.6643C181.458 41.8418 180.938 42.0135 180.435 42.1765C179.932 42.3423 179.447 42.4995 178.976 42.6537C178.505 42.8079 178.048 42.9563 177.603 43.1018C177.159 43.2473 176.726 43.387 176.298 43.5267C175.874 43.6664 175.455 43.8002 175.042 43.9341C174.63 44.0679 174.223 44.1989 173.816 44.3327C173.409 44.4637 173.004 44.5946 172.598 44.7256C172.191 44.8565 171.784 44.9875 171.371 45.1213C170.958 45.2552 170.539 45.389 170.115 45.5258C169.69 45.6626 169.254 45.8022 168.81 45.9448C168.365 46.0874 167.908 46.2329 167.437 46.3842C166.966 46.5355 166.481 46.6898 165.978 46.8498C165.475 47.0099 164.955 47.1757 164.414 47.3474V47.3503Z" fill="white"/>
<path d="M127.301 80.6486C127.347 80.0899 127.394 79.5457 127.44 79.0103C127.487 78.4749 127.53 77.954 127.571 77.4419C127.612 76.9297 127.655 76.4292 127.696 75.9374C127.737 75.4456 127.778 74.9626 127.818 74.4883C127.859 74.014 127.897 73.5455 127.935 73.0857C127.972 72.6259 128.01 72.1691 128.048 71.7209C128.086 71.2728 128.123 70.8276 128.158 70.3853C128.196 69.9459 128.231 69.5065 128.266 69.0729C128.301 68.6393 128.339 68.2057 128.373 67.7751C128.408 67.3444 128.443 66.9137 128.481 66.4831C128.516 66.0524 128.551 65.6188 128.589 65.1852C128.624 64.7517 128.661 64.3152 128.696 63.8758C128.731 63.4364 128.769 62.9941 128.804 62.5459C128.842 62.0978 128.876 61.6468 128.914 61.187C128.952 60.7272 128.99 60.2617 129.028 59.7902C129.065 59.3159 129.106 58.8358 129.144 58.344C129.185 57.8522 129.225 57.3546 129.266 56.8425C129.307 56.3303 129.35 55.8095 129.391 55.274C129.432 54.7386 129.478 54.1915 129.522 53.6299C129.565 53.0683 129.612 52.4921 129.661 51.9014C130.167 52.0818 130.589 52.2303 130.984 52.3699C131.379 52.5096 131.743 52.6376 132.138 52.7773C132.531 52.917 132.955 53.0654 133.461 53.2458C133.496 53.7172 133.525 54.1101 133.554 54.4796C133.58 54.8463 133.606 55.1896 133.635 55.5563C133.661 55.9259 133.693 56.3187 133.728 56.793C133.688 57.3401 133.65 57.8581 133.612 58.3527C133.574 58.8474 133.539 59.3217 133.507 59.7786C133.475 60.2355 133.441 60.6749 133.409 61.1026C133.377 61.5304 133.345 61.9494 133.316 62.3597C133.286 62.77 133.254 63.1774 133.225 63.5819C133.196 63.9864 133.164 64.3908 133.135 64.8011C133.103 65.2114 133.074 65.6246 133.042 66.0495C133.01 66.4743 132.978 66.9108 132.943 67.3619C132.909 67.8129 132.874 68.2785 132.839 68.7674C132.804 69.2562 132.763 69.7626 132.722 70.298C133.1 70.5046 133.382 70.6559 133.664 70.8101C133.946 70.9644 134.231 71.1186 134.606 71.3223C134.641 71.8635 134.676 72.3495 134.705 72.8034C134.734 73.2574 134.763 73.6793 134.792 74.0925C134.818 74.5057 134.848 74.9073 134.874 75.3176C134.9 75.7308 134.929 76.1528 134.961 76.6096C134.99 77.0665 135.025 77.5553 135.06 78.1024C134.688 77.8754 134.38 77.6834 134.089 77.5059C133.801 77.3284 133.531 77.1625 133.243 76.985C132.955 76.8075 132.644 76.6183 132.272 76.3885C132.237 76.8802 132.205 77.3313 132.173 77.7561C132.144 78.181 132.115 78.5767 132.086 78.9579C132.057 79.3391 132.031 79.7087 132.004 80.0753C131.978 80.442 131.952 80.8086 131.923 81.1898C131.894 81.571 131.868 81.9639 131.836 82.3829C131.807 82.8019 131.772 83.2501 131.737 83.736C131.292 83.4247 130.906 83.154 130.545 82.9038C130.185 82.6506 129.853 82.4207 129.519 82.1879C129.185 81.9552 128.853 81.7224 128.493 81.4721C128.132 81.2189 127.746 80.9483 127.301 80.6399V80.6486ZM136.383 86.9981C136.345 86.4219 136.31 85.8603 136.272 85.3103C136.234 84.7603 136.199 84.2191 136.167 83.6895C136.132 83.1599 136.098 82.639 136.066 82.1297C136.034 81.6176 135.999 81.1171 135.967 80.6224C135.935 80.1277 135.903 79.6447 135.871 79.1645C135.839 78.6844 135.81 78.2159 135.778 77.7503C135.749 77.2847 135.717 76.8279 135.688 76.3768C135.659 75.9229 135.63 75.4776 135.601 75.0353C135.571 74.593 135.542 74.1536 135.513 73.7201C135.484 73.2865 135.455 72.8529 135.429 72.4251C135.403 71.9974 135.374 71.5696 135.345 71.1477C135.316 70.7228 135.289 70.3009 135.26 69.879C135.231 69.457 135.205 69.038 135.176 68.616C135.147 68.1941 135.121 67.7751 135.092 67.3531C135.063 66.9312 135.037 66.5093 135.007 66.0844C134.978 65.6596 134.949 65.2318 134.923 64.804C134.894 64.3734 134.865 63.9427 134.836 63.5062C134.807 63.0697 134.778 62.6303 134.746 62.188C134.717 61.7428 134.685 61.2947 134.656 60.8436C134.627 60.3897 134.595 59.9299 134.563 59.4672C134.531 59.0017 134.499 58.5302 134.467 58.053C134.435 57.5758 134.403 57.0898 134.368 56.5951C134.333 56.1005 134.301 55.5999 134.266 55.0907C134.231 54.5815 134.196 54.0635 134.161 53.5339C134.127 53.0072 134.089 52.4689 134.051 51.9218C133.624 51.7763 133.249 51.6512 132.903 51.5348C132.557 51.4184 132.234 51.3107 131.914 51.2001C131.595 51.0896 131.272 50.9848 130.926 50.8655C130.58 50.7491 130.205 50.6211 129.778 50.4785C129.821 49.9838 129.856 49.5502 129.891 49.1457C129.926 48.7413 129.958 48.3688 129.99 47.9963C130.022 47.6238 130.054 47.2485 130.089 46.844C130.124 46.4395 130.161 46.003 130.202 45.5025C130.717 45.6451 131.185 45.7789 131.629 45.9012C132.071 46.0234 132.484 46.1398 132.885 46.2533C133.284 46.3638 133.67 46.4715 134.054 46.5792C134.438 46.6868 134.824 46.7945 135.223 46.9051C135.621 47.0157 136.037 47.1321 136.478 47.2572C136.92 47.3794 137.391 47.5133 137.903 47.6559C137.941 48.2058 137.978 48.7471 138.016 49.2796C138.054 49.8121 138.089 50.3388 138.127 50.8568C138.165 51.3747 138.199 51.884 138.234 52.3874C138.269 52.8908 138.304 53.3884 138.339 53.8773C138.374 54.369 138.406 54.8521 138.441 55.3293C138.473 55.8066 138.508 56.2809 138.54 56.7494C138.572 57.2179 138.604 57.6805 138.635 58.1374C138.667 58.5943 138.699 59.0482 138.729 59.4992C138.761 59.9474 138.79 60.3955 138.822 60.8378C138.854 61.2801 138.883 61.7195 138.912 62.156C138.941 62.5925 138.973 63.0261 139.002 63.4568C139.031 63.8874 139.06 64.3181 139.089 64.7458C139.118 65.1736 139.147 65.5985 139.176 66.0262C139.205 66.454 139.234 66.8759 139.263 67.3008C139.292 67.7256 139.322 68.1475 139.351 68.5724C139.38 68.9972 139.409 69.4221 139.438 69.8469C139.467 70.2718 139.496 70.6996 139.525 71.1273C139.554 71.5551 139.583 71.9857 139.612 72.4164C139.641 72.85 139.67 73.2836 139.699 73.7201C139.729 74.1565 139.758 74.5989 139.79 75.0412C139.819 75.4864 139.851 75.9316 139.88 76.3826C139.909 76.8337 139.941 77.2905 139.973 77.7503C140.005 78.2101 140.034 78.6757 140.066 79.1471C140.098 79.6185 140.13 80.0957 140.162 80.5788C140.194 81.0618 140.226 81.5507 140.261 82.0454C140.293 82.54 140.327 83.0435 140.362 83.5556C140.397 84.0648 140.432 84.5828 140.467 85.1095C140.502 85.6362 140.537 86.1687 140.575 86.7129C140.612 87.257 140.647 87.8099 140.685 88.3715C140.723 88.9332 140.761 89.5064 140.798 90.0855C140.356 89.777 139.973 89.5064 139.615 89.2562C139.258 89.0059 138.926 88.776 138.595 88.5432C138.263 88.3133 137.935 88.0805 137.574 87.8303C137.217 87.58 136.83 87.3094 136.391 87.001L136.383 86.9981Z" fill="white"/>
<path d="M148.331 86.5034V83.8088C148.331 83.4101 148.331 83.0202 148.331 82.6186V79.924C148.808 79.6243 149.049 79.473 149.526 79.1733C149.805 78.9987 150.035 78.7775 150.223 78.5098C150.412 78.2421 150.561 77.9336 150.674 77.5786C150.787 77.2236 150.866 76.8249 150.915 76.3826C150.965 75.9403 150.988 75.4515 150.988 74.9189V71.4445C150.988 70.7345 150.95 70.1438 150.857 69.6898C150.764 69.2388 150.619 68.9245 150.401 68.7703C150.186 68.616 149.898 68.6248 149.526 68.8168C149.116 69.0293 148.811 69.1864 148.502 69.3464C148.194 69.5065 147.889 69.6636 147.479 69.876V82.4702C147.479 82.9358 147.479 83.4159 147.479 83.9106V87.0999C147.034 87.4113 146.648 87.6819 146.287 87.9321C145.927 88.1824 145.595 88.4152 145.261 88.648C144.93 88.8808 144.595 89.1136 144.235 89.3638C143.874 89.6141 143.488 89.8876 143.043 90.1961V79.342C143.043 78.8735 143.043 78.4079 143.043 77.9482V66.1048C143.043 65.6683 143.043 65.2318 143.043 64.7924V51.8403C143.043 51.302 143.043 50.7549 143.043 50.1991V48.5026C143.488 48.3775 143.874 48.2698 144.235 48.168C144.595 48.0661 144.927 47.973 145.261 47.8799C145.595 47.7868 145.927 47.6937 146.287 47.5918C146.648 47.49 147.034 47.3823 147.479 47.2572V51.9014C147.479 52.367 147.479 52.821 147.479 53.2662V63.2269C147.889 63.0435 148.194 62.9068 148.502 62.77C148.811 62.6332 149.116 62.4965 149.526 62.3131C149.805 62.188 150.035 62.0076 150.223 61.7777C150.412 61.5478 150.561 61.2627 150.674 60.928C150.787 60.5934 150.866 60.2093 150.915 59.7757C150.965 59.3421 150.988 58.8591 150.988 58.3236V56.0073C150.988 55.2973 150.95 54.7037 150.857 54.2439C150.764 53.7842 150.619 53.4524 150.401 53.272C150.186 53.0887 149.898 53.0538 149.526 53.1847C149.049 53.3506 148.808 53.435 148.331 53.6037C148.331 53.077 148.331 52.6027 148.331 52.1604V47.0244C148.776 46.8993 149.148 46.7945 149.497 46.6985C149.846 46.6025 150.165 46.5122 150.514 46.4133C150.86 46.3173 151.232 46.2125 151.68 46.0874C152.203 45.9419 152.654 45.907 153.04 45.9652C153.427 46.0234 153.753 46.1718 154.023 46.3929C154.293 46.6141 154.514 46.9109 154.692 47.263C154.869 47.6151 155.003 48.0225 155.104 48.4706C155.206 48.9188 155.276 49.4076 155.322 49.9198C155.369 50.4319 155.395 50.9703 155.41 51.5144C155.424 52.0586 155.424 52.6115 155.424 53.1527V54.2119C155.424 54.663 155.424 55.1285 155.413 55.6029C155.404 56.0743 155.386 56.5544 155.354 57.0375C155.322 57.5176 155.276 58.0006 155.206 58.4808C155.136 58.958 155.046 59.4323 154.93 59.8979C154.811 60.3635 154.665 60.8174 154.482 61.2568C154.299 61.6962 154.081 62.1211 153.822 62.5285C153.564 62.933 153.261 63.3171 152.913 63.675C152.561 64.0329 152.162 64.3617 151.709 64.6556C152.229 64.4752 152.677 64.4054 153.061 64.4258C153.445 64.4461 153.767 64.5538 154.038 64.7342C154.308 64.9146 154.526 65.1707 154.7 65.4821C154.875 65.7934 155.009 66.1601 155.11 66.5704C155.212 66.9778 155.279 67.4288 155.328 67.9031C155.378 68.3774 155.401 68.8779 155.413 69.3872C155.427 69.8964 155.427 70.4144 155.427 70.9236V73.4378C155.427 73.8597 155.427 74.2875 155.418 74.7182C155.413 75.1488 155.398 75.5853 155.375 76.0218C155.352 76.4583 155.317 76.8948 155.27 77.3255C155.221 77.759 155.157 78.1897 155.072 78.6146C154.988 79.0394 154.884 79.4584 154.753 79.8687C154.622 80.279 154.468 80.6806 154.282 81.0705C154.096 81.4605 153.883 81.8387 153.633 82.2025C153.383 82.5662 153.101 82.9125 152.776 83.2413C152.453 83.5702 152.09 83.8786 151.683 84.1638C151.238 84.4752 150.866 84.7341 150.517 84.9786C150.171 85.2201 149.848 85.4471 149.5 85.6886C149.154 85.9301 148.782 86.192 148.334 86.5034H148.331Z" fill="white"/>
<path d="M170.059 66.067C170.059 66.4831 170.033 66.8934 169.981 67.2979C169.928 67.7024 169.85 68.101 169.748 68.4968C169.646 68.8925 169.518 69.2795 169.367 69.6666C169.216 70.0507 169.042 70.4319 168.847 70.8043C168.652 71.1797 168.434 71.5464 168.196 71.9101C167.957 72.2738 167.698 72.6289 167.417 72.9781C167.135 73.3272 166.838 73.6706 166.521 74.0053C166.204 74.3399 165.867 74.6658 165.515 74.9801C165.164 75.2944 164.791 75.6028 164.405 75.8996C164.605 75.3031 164.754 74.7444 164.852 74.2206C164.951 73.6968 165.001 73.2079 165.001 72.7511C165.001 72.2942 164.951 71.8723 164.852 71.4823C164.754 71.0924 164.602 70.7345 164.405 70.4057C164.661 70.1496 164.882 69.847 165.065 69.5181C165.245 69.1864 165.387 68.8285 165.48 68.4589C165.573 68.0894 165.626 67.7082 165.626 67.3328V64.6877C165.626 64.161 165.547 63.7478 165.402 63.416C165.259 63.0843 165.053 62.834 164.797 62.6391C164.541 62.4441 164.242 62.3044 163.908 62.1968C163.573 62.0891 163.21 62.0105 162.829 61.9378C162.448 61.865 162.05 61.7981 161.655 61.7079C161.256 61.6206 160.861 61.51 160.48 61.3558C160.099 61.2016 159.733 61.0008 159.402 60.7273C159.067 60.4537 158.765 60.1074 158.512 59.6651C158.259 59.2228 158.053 58.6845 157.907 58.0239C157.765 57.3634 157.684 56.5835 157.684 55.6669V51.0314C157.684 50.4785 157.718 49.9402 157.785 49.4193C157.852 48.8984 157.954 48.395 158.088 47.9119C158.221 47.4289 158.384 46.9691 158.576 46.5356C158.768 46.102 158.992 45.6888 159.242 45.3047C159.492 44.9205 159.771 44.5655 160.076 44.2367C160.381 43.9108 160.71 43.6111 161.065 43.3434C161.419 43.0756 161.797 42.8399 162.201 42.6363C162.605 42.4326 163.027 42.258 163.472 42.1183C163.271 42.6333 163.123 43.1397 163.024 43.6344C162.925 44.129 162.876 44.6121 162.876 45.0806C162.876 45.5491 162.925 46.003 163.024 46.4366C163.123 46.8702 163.274 47.2863 163.472 47.6792C163.19 47.8421 162.943 48.0749 162.742 48.3572C162.541 48.6394 162.384 48.977 162.28 49.3465C162.175 49.7161 162.117 50.1206 162.117 50.5425V52.5358C162.117 53.1353 162.195 53.6096 162.341 53.9879C162.483 54.3662 162.69 54.6484 162.945 54.8638C163.201 55.0791 163.501 55.2217 163.835 55.3264C164.169 55.4312 164.533 55.4952 164.914 55.5505C165.294 55.6029 165.693 55.6465 166.088 55.7047C166.486 55.7629 166.882 55.8386 167.262 55.9579C167.643 56.0772 168.01 56.2402 168.341 56.473C168.672 56.7057 168.978 57.0113 169.231 57.4158C169.483 57.8202 169.69 58.3208 169.835 58.9522C169.978 59.5837 170.056 60.3432 170.056 61.2685V66.0728L170.059 66.067ZM162.12 69.4978C162.12 70.1292 162.254 70.5977 162.489 70.8625C162.724 71.1303 163.065 71.1972 163.475 71.0342C163.675 71.366 163.823 71.7297 163.922 72.1254C164.021 72.5212 164.07 72.949 164.07 73.4116C164.07 73.8743 164.021 74.369 163.922 74.8986C163.823 75.4282 163.672 75.9927 163.475 76.5951C162.966 76.9385 162.486 77.2207 162.033 77.439C161.579 77.6572 161.16 77.8114 160.771 77.8958C160.381 77.9802 160.024 78.0006 159.701 77.9453C159.378 77.89 159.091 77.7678 158.844 77.5728C158.594 77.3779 158.381 77.1072 158.21 76.7668C158.038 76.4234 157.907 76.0073 157.817 75.5184C157.73 75.0266 157.684 74.4621 157.684 73.8248V67.0418C158.128 66.8003 158.515 66.5879 158.875 66.39C159.236 66.1921 159.567 66.0117 159.902 65.8284C160.236 65.645 160.567 65.4646 160.928 65.2667C161.288 65.0689 161.675 64.8564 162.12 64.6149V69.4978ZM164.413 47.3532C164.213 46.9575 164.065 46.5472 163.963 46.1253C163.861 45.7033 163.812 45.2639 163.809 44.8129C163.809 44.3589 163.855 43.8933 163.954 43.4074C164.053 42.9214 164.201 42.4209 164.402 41.9029C165.097 41.7604 165.544 41.8651 165.806 42.1241C166.068 42.3831 166.146 42.7963 166.108 43.2852C166.071 43.774 165.916 44.3356 165.71 44.8914C165.504 45.4472 165.251 45.9885 165.012 46.4308C164.774 46.8731 164.55 47.2136 164.411 47.3562L164.413 47.3532Z" fill="white"/>
<path d="M102 12.6029V33.4525C102.532 33.5631 102.974 33.6591 103.387 33.7464C103.799 33.8337 104.183 33.9152 104.596 34.0025C105.009 34.0898 105.451 34.1829 105.983 34.2964V24.0826C105.933 23.5471 105.887 23.0408 105.84 22.5607C105.797 22.0805 105.753 21.6208 105.712 21.1814C105.672 20.742 105.631 20.32 105.593 19.9068C105.555 19.4936 105.518 19.092 105.48 18.6963C105.442 18.3005 105.404 17.9048 105.369 17.509C105.334 17.1133 105.294 16.7146 105.256 16.3072C105.218 15.8998 105.177 15.4837 105.137 15.0501C105.096 14.6195 105.052 14.1714 105.009 13.7029C104.965 13.2344 104.919 12.7426 104.866 12.2246C104.294 12.3003 103.863 12.3585 103.433 12.4167C103.003 12.4749 102.573 12.5331 102 12.6087V12.6029Z" fill="white"/>
<path d="M104.43 7.59491C103.945 7.69676 103.579 7.77241 103.215 7.84807C102.852 7.92373 102.485 7.99939 102 8.10124V12.6786C102.573 12.6029 103.006 12.5447 103.436 12.4894C103.866 12.4341 104.297 12.3759 104.872 12.3003C104.829 11.8259 104.791 11.4127 104.753 11.0286C104.718 10.6445 104.683 10.2924 104.651 9.94031C104.619 9.58821 104.584 9.23611 104.55 8.85491C104.515 8.47371 104.474 8.06341 104.43 7.59782V7.59491Z" fill="white"/>
<path d="M108.955 6.65214C108.487 6.75108 108.098 6.82965 107.734 6.90821L106.67 7.12937C106.307 7.20503 105.917 7.2865 105.449 7.38544C105.493 7.84521 105.531 8.24969 105.568 8.62216C105.603 8.99754 105.638 9.34382 105.67 9.6901C105.702 10.0364 105.737 10.3856 105.772 10.7639C105.807 11.1422 105.845 11.5495 105.891 12.0151C105.943 12.5651 105.996 13.0976 106.045 13.6185C106.095 14.1394 106.144 14.6428 106.191 15.1375C106.237 15.6322 106.284 16.1123 106.327 16.5866C106.371 17.058 106.414 17.5207 106.458 17.9747C106.502 18.4286 106.542 18.8767 106.583 19.3161C106.624 19.7555 106.664 20.192 106.705 20.6227C106.746 21.0534 106.786 21.4811 106.824 21.9089C106.865 22.3366 106.903 22.7615 106.943 23.1863C106.984 23.6112 107.022 24.039 107.063 24.4667C107.103 24.8974 107.141 25.3281 107.182 25.7674C107.223 26.2039 107.263 26.6492 107.304 27.1002C107.345 27.5512 107.388 28.0081 107.432 28.4766C107.475 28.9451 107.519 29.4223 107.563 29.9141C107.606 30.403 107.653 30.9064 107.699 31.4243C107.746 31.9423 107.795 32.4748 107.845 33.0219C107.894 33.569 107.946 34.1364 107.999 34.7242C108.566 34.8435 109.06 34.9483 109.519 35.0443C109.978 35.1403 110.403 35.2305 110.827 35.3207C111.252 35.4109 111.676 35.4982 112.136 35.5972C112.595 35.6961 113.089 35.798 113.656 35.9173C113.7 35.3993 113.74 34.925 113.778 34.4798C113.816 34.0345 113.851 33.6155 113.886 33.211C113.92 32.8066 113.952 32.4166 113.987 32.0238C114.019 31.6339 114.054 31.241 114.089 30.8336C114.124 30.4262 114.159 30.0043 114.197 29.5533C114.234 29.1022 114.275 28.6192 114.319 28.0925C113.851 28.0459 113.461 28.0052 113.098 27.9674C112.734 27.9295 112.397 27.8975 112.034 27.8597C111.67 27.8219 111.281 27.784 110.813 27.7346C110.763 27.1584 110.714 26.5997 110.667 26.0613C110.621 25.523 110.577 24.9992 110.531 24.4929C110.484 23.9866 110.444 23.4948 110.403 23.0147C110.362 22.5345 110.321 22.0689 110.281 21.6092C110.24 21.1523 110.202 20.7042 110.165 20.2619C110.127 19.8196 110.089 19.386 110.051 18.9582C110.013 18.5276 109.976 18.1027 109.938 17.6808C109.9 17.2588 109.862 16.8369 109.827 16.4149C109.792 15.993 109.752 15.5711 109.714 15.1462C109.676 14.7214 109.638 14.2936 109.601 13.86C109.563 13.4264 109.522 12.9871 109.484 12.5389C109.444 12.0908 109.403 11.6368 109.362 11.1713C109.321 10.7057 109.278 10.2314 109.234 9.74248C109.191 9.25361 109.144 8.75311 109.098 8.24096C109.051 7.7259 109.005 7.1963 108.952 6.64923L108.955 6.65214Z" fill="white"/>
<path d="M119.633 37.1714V35.4982C119.633 34.9512 119.633 34.4186 119.633 33.8948V10.7347C119.633 10.2459 119.633 9.75119 119.633 9.24777V4.42603C119.077 4.54242 118.58 4.64427 118.112 4.74321C117.647 4.83923 117.214 4.92944 116.792 5.01965C116.371 5.10695 115.961 5.19425 115.539 5.28154C115.118 5.36884 114.685 5.45905 114.22 5.55799C113.754 5.65692 113.254 5.75877 112.699 5.87517C112.65 6.46006 112.6 7.01586 112.554 7.55129C112.507 8.08671 112.464 8.59595 112.42 9.09064C112.376 9.58532 112.336 10.0596 112.295 10.5223C112.254 10.985 112.217 11.436 112.176 11.8783C112.138 12.3207 112.1 12.7571 112.063 13.1878C112.025 13.6185 111.987 14.0492 111.949 14.4798C111.911 14.9105 111.874 15.3412 111.836 15.7806C111.798 16.22 111.757 16.6652 111.717 17.1191C111.676 17.576 111.635 18.0416 111.592 18.5246C111.548 19.0077 111.504 19.5053 111.458 20.0232C111.411 20.5412 111.365 21.0795 111.312 21.6411C111.353 22.1358 111.388 22.5694 111.42 22.9739C111.452 23.3784 111.481 23.7508 111.513 24.1233C111.542 24.4958 111.574 24.8712 111.606 25.2756C111.638 25.6801 111.673 26.1195 111.714 26.62C112.254 26.6666 112.661 26.6986 113.068 26.7335C113.475 26.7684 113.879 26.8034 114.423 26.847C114.47 26.3145 114.513 25.8053 114.554 25.3164C114.595 24.8275 114.635 24.3561 114.673 23.8993C114.711 23.4424 114.749 23.003 114.786 22.5723C114.824 22.1417 114.859 21.7226 114.894 21.3065C114.929 20.8904 114.964 20.4859 114.999 20.0785C115.034 19.6711 115.066 19.2666 115.1 18.8593C115.135 18.4519 115.17 18.0416 115.205 17.6255C115.24 17.2093 115.275 16.7845 115.313 16.3451C115.348 15.9086 115.385 15.4605 115.426 14.9949C115.464 14.5293 115.505 14.0492 115.545 13.5457C115.586 13.0423 115.63 12.5185 115.676 11.9686V15.2219C115.676 15.7369 115.676 16.2374 115.676 16.7263V36.3363C116.202 36.4469 116.644 36.54 117.054 36.6273C117.464 36.7146 117.845 36.7931 118.255 36.8804C118.665 36.9677 119.103 37.0608 119.633 37.1714Z" fill="white"/>
</g>
<defs>
<clipPath id="clip0_782_6174">
<rect width="80" height="90.1961" fill="white" transform="translate(102)"/>
</clipPath>
</defs>
</svg>
