<svg width="80" height="91" viewBox="0 0 80 91" fill="none" xmlns="http://www.w3.org/2000/svg">
<g clip-path="url(#clip0_1371_8159)">
<path d="M19.8877 37.6487C19.8877 37.0871 19.8877 36.5371 19.8877 35.9988V15.6846C19.8877 15.2481 19.8877 14.8058 19.8877 14.3606V3.95469C20.3325 3.86158 20.7191 3.7801 21.0796 3.70735C21.4401 3.6346 21.7715 3.56185 22.1058 3.49492L23.132 3.2825C23.4925 3.20684 23.8791 3.12536 24.3239 3.03516V20.1717C24.3239 20.5995 24.3239 21.0243 24.3239 21.4521V38.5886C23.8791 38.4955 23.4925 38.414 23.132 38.3384C22.7715 38.2627 22.4401 38.1929 22.1058 38.123C21.7744 38.0532 21.4401 37.9834 21.0796 37.9077C20.7191 37.8321 20.3325 37.7506 19.8877 37.6575V37.6487Z" fill="white"/>
<path d="M26.1436 9.40496C26.1436 8.83462 26.1784 8.28755 26.2453 7.76376C26.3122 7.23998 26.4139 6.73947 26.5476 6.26515C26.6814 5.79083 26.8442 5.33688 27.036 4.91203C27.2279 4.48427 27.4517 4.08271 27.7018 3.71023C27.9518 3.33485 28.2308 2.98857 28.5361 2.66848C28.8413 2.34839 29.1698 2.0574 29.5245 1.79841C29.8792 1.53943 30.2571 1.31246 30.6612 1.1204C31.0623 0.928345 31.4868 0.768299 31.9316 0.648992C31.7717 1.11458 31.6438 1.57144 31.5478 2.02248C31.4519 2.47352 31.3879 2.91873 31.356 3.35522C31.324 3.79462 31.324 4.22529 31.356 4.65305C31.3879 5.08081 31.4519 5.49984 31.5478 5.91596C31.6438 6.33208 31.7717 6.74238 31.9286 7.14977C31.6379 7.26907 31.3879 7.47859 31.1873 7.75212C30.9868 8.02566 30.8327 8.36903 30.7309 8.75896C30.6263 9.1518 30.5739 9.5912 30.5739 10.0684V18.8506C30.5739 19.2842 30.5739 19.7148 30.5739 20.1455V31.5088C30.5739 31.9685 30.6292 32.4079 30.7367 32.8008C30.8443 33.1936 30.9984 33.5457 31.199 33.8309C31.3996 34.119 31.6438 34.3401 31.9286 34.4769C32.0885 34.9308 32.2164 35.3848 32.3124 35.8358C32.4083 36.2869 32.4723 36.735 32.5042 37.1773C32.5362 37.6196 32.5362 38.059 32.5042 38.4897C32.4723 38.9203 32.4083 39.3452 32.3124 39.7613C32.2164 40.1774 32.0885 40.5848 31.9286 40.9806C31.4868 40.8613 31.0652 40.7099 30.667 40.5266C30.2687 40.3433 29.8908 40.1367 29.5361 39.8981C29.1815 39.6595 28.853 39.3947 28.5477 39.1008C28.2425 38.8069 27.9634 38.4868 27.7134 38.1405C27.4634 37.7942 27.2395 37.4188 27.0447 37.0202C26.85 36.6215 26.6843 36.1937 26.5535 35.7398C26.4197 35.2858 26.318 34.8057 26.2482 34.2994C26.1784 33.7931 26.1436 33.2576 26.1436 32.6931V29.5824C26.1436 29.0906 26.1436 28.6134 26.1436 28.1449V10.9996C26.1436 10.4816 26.1436 9.94912 26.1436 9.40205V9.40496ZM34.0828 15.2626V9.70759C34.0828 9.24492 34.0334 8.82589 33.9374 8.46506C33.8415 8.10422 33.702 7.80159 33.5217 7.57171C33.3415 7.34182 33.1206 7.18469 32.8618 7.11194C32.7019 6.69 32.574 6.26806 32.4781 5.84612C32.3822 5.42127 32.3182 4.99642 32.2862 4.56284C32.2542 4.13217 32.2542 3.69569 32.2862 3.25338C32.3182 2.81107 32.3822 2.36003 32.4781 1.90317C32.574 1.4434 32.7019 0.977814 32.8618 0.497676C33.2979 0.439477 33.7107 0.427838 34.1031 0.459847C34.4956 0.494766 34.8648 0.576244 35.2136 0.701371C35.5596 0.829408 35.8823 1.004 36.1817 1.22225C36.4782 1.4434 36.7515 1.70821 36.9957 2.01957C37.2399 2.33093 37.4579 2.68594 37.6469 3.0846C37.8358 3.48326 37.9957 3.92557 38.1236 4.41153C38.2516 4.89457 38.3504 5.42127 38.4173 5.9858C38.4841 6.55032 38.5161 7.15268 38.5161 7.79286V15.0124C38.0713 15.0386 37.6847 15.0589 37.3242 15.0822C36.9637 15.1055 36.6323 15.123 36.298 15.1404C35.9637 15.1579 35.6323 15.1783 35.2718 15.1986C34.9113 15.219 34.5247 15.2423 34.0799 15.2685L34.0828 15.2626ZM36.6846 41.1901C36.6468 40.7827 36.612 40.4422 36.5829 40.1251C36.5538 39.8079 36.5247 39.514 36.4928 39.1968C36.4637 38.8796 36.4288 38.5421 36.391 38.1347C36.2311 38.6701 36.0247 39.1328 35.7805 39.5227C35.5363 39.9126 35.2543 40.2298 34.9462 40.4772C34.638 40.7245 34.3037 40.902 33.952 41.0097C33.6002 41.1173 33.2339 41.161 32.8618 41.1377C33.0217 40.739 33.1496 40.3258 33.2456 39.9068C33.3415 39.4878 33.4054 39.0571 33.4374 38.6206C33.4694 38.1841 33.4694 37.7418 33.4374 37.2937C33.4054 36.8456 33.3415 36.3945 33.2456 35.9377C33.1496 35.4808 33.0217 35.024 32.8618 34.5671C33.1264 34.4973 33.3531 34.3401 33.5334 34.1102C33.7136 33.8804 33.8531 33.5777 33.9433 33.2169C34.0363 32.8561 34.0828 32.4341 34.0828 31.9714C34.0828 31.4011 34.0828 30.886 34.0828 30.4088V24.8392C33.7281 24.8247 33.4607 24.813 33.1932 24.8014C32.9258 24.7897 32.6583 24.7781 32.3037 24.7636V18.2802C32.8008 18.2686 33.2485 18.257 33.6671 18.2453C34.0857 18.2337 34.4723 18.2249 34.8503 18.2133C35.2282 18.2046 35.5945 18.1929 35.9724 18.1842C36.3503 18.1755 36.737 18.1638 37.1556 18.1522C37.5742 18.1406 38.0219 18.1289 38.519 18.1173C38.519 18.6702 38.519 19.2056 38.519 19.7265V31.7183C38.519 32.1373 38.519 32.5563 38.519 32.9841V41.58C38.1527 41.5014 37.8765 41.4462 37.6033 41.388C37.33 41.3298 37.0538 41.2716 36.6875 41.1959L36.6846 41.1901Z" fill="white"/>
<path d="M41.1465 41.6498V38.315C41.1465 37.7767 41.1465 37.2471 41.1465 36.7262V24.0651C41.1465 23.6286 41.1465 23.1979 41.1465 22.7644V9.41652C41.1465 8.93638 41.1465 8.45043 41.1465 7.95865V0C41.5913 0.0931176 41.9779 0.174596 42.3384 0.247344C42.6989 0.320092 43.0303 0.39284 43.3646 0.459768C43.6989 0.526697 44.0303 0.599445 44.3908 0.672193C44.7513 0.744941 45.1379 0.829329 45.5827 0.919537V5.77911C45.5827 6.29417 45.5827 6.8005 45.5827 7.29809V20.8118C45.5827 21.2395 45.5827 21.6644 45.5827 22.0922V35.8474C45.5827 36.3624 45.5827 36.8833 45.5827 37.4129V40.707C45.1379 40.8001 44.7513 40.8816 44.3908 40.9572C44.0303 41.0329 43.6989 41.1027 43.3646 41.1725C43.0332 41.2424 42.6989 41.3122 42.3384 41.3879C41.9779 41.4635 41.5913 41.545 41.1465 41.6381V41.6498ZM49.0857 39.9766V29.1778C49.0857 28.7472 49.0857 28.3107 49.0857 27.8625V23.4104C48.5537 23.4249 48.1555 23.4365 47.7572 23.4482C47.3589 23.4598 46.9607 23.4715 46.4287 23.486V22.0456C46.4287 21.6033 46.4287 21.193 46.4287 20.7943V16.9154C46.9607 16.9358 47.3589 16.9532 47.7572 16.9678C48.1555 16.9823 48.5537 16.9998 49.0857 17.0202V12.5534C49.0857 12.1053 49.0857 11.6688 49.0857 11.241V1.65575C49.5305 1.74887 49.9172 1.83034 50.2776 1.90309C50.6381 1.97875 50.9695 2.04859 51.3038 2.11552C51.6352 2.18535 51.9696 2.25519 52.33 2.32794C52.6905 2.4036 53.0772 2.48508 53.5219 2.57528C53.5219 3.1369 53.5219 3.68688 53.5219 4.22521V20.8031C53.5219 21.225 53.5219 21.644 53.5219 22.066V39.0337C53.0772 39.1269 52.6905 39.2083 52.33 39.284C51.9696 39.3597 51.6381 39.4295 51.3038 39.4993C50.9724 39.5692 50.6381 39.639 50.2776 39.7147C49.9172 39.7903 49.5305 39.8718 49.0857 39.9649V39.9766Z" fill="white"/>
<path d="M55.5225 8.93332V2.99707C55.9411 3.08437 56.258 3.1513 56.5719 3.21531C56.8859 3.28224 57.2028 3.34626 57.6214 3.43356V9.22431C57.2028 9.16611 56.8859 9.12247 56.5719 9.07882C56.258 9.03517 55.9411 8.99152 55.5225 8.93332ZM58.4964 37.9889V22.092C58.4964 21.6613 58.4964 21.2307 58.4964 20.8029V3.61688C58.9935 3.72164 59.447 3.81476 59.8744 3.90497C60.3017 3.99518 60.7 4.07665 61.0866 4.15813C61.4733 4.23961 61.8425 4.31527 62.2146 4.39384C62.5867 4.4724 62.9588 4.54806 63.3425 4.62954C63.7262 4.71102 64.1274 4.7925 64.5548 4.8827C64.9821 4.97291 65.4356 5.06603 65.9327 5.17079V10.3796C65.5316 10.3243 65.2001 10.2777 64.8891 10.2341C64.578 10.1904 64.2902 10.1497 63.9763 10.1089C63.6652 10.0653 63.3309 10.0187 62.9326 9.96344V13.2167C62.9326 13.7347 62.9326 14.2381 62.9326 14.7328V37.0548C62.4878 37.148 62.1012 37.2294 61.7407 37.3051C61.3802 37.3808 61.0488 37.4506 60.7145 37.5204C60.3802 37.5903 60.0488 37.6601 59.6883 37.7358C59.3278 37.8114 58.9412 37.8929 58.4964 37.986V37.9889Z" fill="white"/>
<path d="M71.398 35.2681V26.2444C71.2876 25.7206 71.1771 25.2143 71.0724 24.7196C70.9678 24.2249 70.866 23.7419 70.7672 23.2734C70.6684 22.8049 70.5724 22.3422 70.4794 21.8912C70.3864 21.4401 70.2934 20.9978 70.2032 20.5642C70.1131 20.1277 70.0259 19.7 69.9387 19.2751C69.8515 18.8503 69.7672 18.4313 69.68 18.0151C69.5927 17.599 69.5113 17.1829 69.427 16.7668C69.3427 16.3507 69.2584 15.9345 69.1741 15.5184C69.0898 15.1023 69.0055 14.6804 68.9212 14.2526C68.8369 13.8278 68.7497 13.3942 68.6625 12.9548C68.5753 12.5154 68.4881 12.0672 68.3979 11.6104C68.3078 11.1535 68.2148 10.685 68.1218 10.202C68.0287 9.71894 67.9328 9.22716 67.834 8.71501C67.7351 8.20287 67.6334 7.67617 67.5287 7.13201C67.4241 6.58495 67.3165 6.02042 67.2031 5.43262C67.7613 5.54901 68.2293 5.64504 68.6625 5.73816C69.0985 5.82837 69.5026 5.91275 69.9358 6.00296C70.3689 6.09317 70.837 6.19211 71.3951 6.30851C71.5114 6.89631 71.6277 7.46375 71.7353 8.01081C71.8457 8.55788 71.9533 9.08457 72.055 9.59672C72.1597 10.1089 72.2614 10.6036 72.3574 11.0837C72.4562 11.5638 72.5522 12.0323 72.6481 12.4892C72.744 12.946 72.8341 13.3913 72.9272 13.8307C73.0173 14.2701 73.1074 14.7007 73.1975 15.1256C73.2876 15.5504 73.3749 15.9695 73.465 16.3885C73.5522 16.8046 73.6423 17.2178 73.7295 17.6339C73.8167 18.0471 73.9069 18.4604 73.997 18.8765C74.0871 19.2926 74.1772 19.7087 74.2673 20.1307C74.3575 20.5526 74.4505 20.9774 74.5464 21.411C74.6423 21.8446 74.7383 22.2811 74.8371 22.7292C74.936 23.1773 75.0377 23.6313 75.1395 24.0998C75.2441 24.5654 75.3517 25.0426 75.4592 25.5344C75.5697 26.0233 75.6831 26.5267 75.7994 27.0446V34.3456C75.3575 34.4388 74.9738 34.5202 74.6162 34.5959C74.2586 34.6716 73.9272 34.7414 73.5958 34.8112C73.2644 34.8811 72.9359 34.9509 72.5754 35.0266C72.2149 35.1022 71.8312 35.1837 71.3922 35.2768L71.398 35.2681ZM74.2935 15.0557C74.3894 14.5203 74.4795 14.0344 74.5639 13.5775C74.6482 13.1206 74.7267 12.6958 74.8022 12.2855C74.8778 11.8752 74.9505 11.4824 75.0232 11.0924C75.0959 10.6996 75.1685 10.3097 75.2441 9.90517C75.3197 9.50069 75.3982 9.08457 75.4825 8.64227C75.5668 8.19996 75.6569 7.72855 75.7528 7.21931C76.3197 7.33862 76.7907 7.43465 77.2326 7.52776C77.6744 7.62088 78.0814 7.70527 78.5233 7.79548C78.9652 7.8886 79.4361 7.98462 80.003 8.10393C79.878 8.60153 79.7617 9.07875 79.6454 9.54434C79.5321 10.0099 79.4216 10.4581 79.314 10.8975C79.2065 11.3339 79.1047 11.7617 79.003 12.1778C78.9012 12.5969 78.8053 13.0042 78.7064 13.4087C78.6076 13.8132 78.5146 14.2119 78.4216 14.6076C78.3285 15.0034 78.2355 15.3991 78.1425 15.7949C78.0494 16.1906 77.9564 16.5893 77.8634 16.9938C77.7704 17.3982 77.6744 17.8085 77.5785 18.2247C77.4826 18.6437 77.3837 19.0714 77.282 19.5138C77.1802 19.9561 77.0785 20.41 76.9709 20.8843C76.8634 21.3586 76.7529 21.8475 76.6395 22.3597C76.5261 22.8718 76.4069 23.4072 76.2819 23.9688C76.1686 23.4742 76.0639 23.0144 75.9622 22.575C75.8633 22.1385 75.7674 21.7224 75.6773 21.3237C75.5871 20.9222 75.4999 20.5351 75.4127 20.1539C75.3255 19.7698 75.2412 19.3915 75.1569 19.0045C75.0697 18.6175 74.9825 18.2247 74.8924 17.8144C74.8022 17.4041 74.7063 16.9763 74.6075 16.5194C74.5086 16.0626 74.4011 15.5795 74.2877 15.0528L74.2935 15.0557Z" fill="white"/>
<path d="M14.1631 72.8646V63.7653C14.1631 63.3084 14.1631 62.8603 14.1631 62.4122V41.5684C14.6079 41.6935 14.9945 41.8012 15.355 41.903C15.7155 42.0048 16.0469 42.098 16.3812 42.1911C16.7126 42.2842 17.0469 42.3773 17.4074 42.4792C17.7679 42.581 18.1545 42.6887 18.5993 42.8138V57.442C18.5993 57.8756 18.5993 58.3092 18.5993 58.7427V75.9666C18.1545 75.6552 17.7679 75.3846 17.4074 75.1344C17.0469 74.8812 16.7155 74.6513 16.3812 74.4185C16.0498 74.1857 15.7155 73.9529 15.355 73.7027C14.9945 73.4495 14.6079 73.1789 14.1631 72.8704V72.8646ZM19.4482 76.5602V70.9761C19.8406 71.2234 20.1866 71.4388 20.5034 71.6395C20.8232 71.8403 21.1168 72.0266 21.4134 72.2128C21.707 72.399 22.0035 72.5824 22.3233 72.7861C22.643 72.9868 22.9861 73.2022 23.3785 73.4495V79.3072C22.9861 79.0337 22.643 78.7921 22.3233 78.5681C22.0035 78.344 21.7099 78.1374 21.4134 77.9337C21.1197 77.7271 20.8232 77.5205 20.5034 77.2994C20.1837 77.0753 19.8406 76.8367 19.4482 76.5602Z" fill="white"/>
<path d="M0 42.4767V37.6113C0.53781 37.7626 1.05236 37.9052 1.54075 38.042C2.03205 38.1788 2.50009 38.3097 2.9536 38.4377C3.4071 38.5658 3.84316 38.6851 4.2676 38.8044C4.69203 38.9237 5.10774 39.0401 5.51764 39.1536C5.92754 39.2671 6.33162 39.3806 6.73571 39.4941C7.13979 39.6075 7.54388 39.721 7.95378 39.8345C8.36368 39.948 8.77939 40.0644 9.20382 40.1837C9.62826 40.303 10.0672 40.4252 10.5178 40.5504C10.9713 40.6784 11.4394 40.8093 11.9307 40.9461C12.422 41.0829 12.9336 41.2255 13.4714 41.3768V46.5448C12.9336 46.3877 12.4191 46.2393 11.9307 46.0938C11.4394 45.9483 10.9713 45.8115 10.5178 45.6776C10.0643 45.5438 9.62826 45.4128 9.20382 45.2877C8.77939 45.1597 8.36368 45.0375 7.95378 44.9123C7.54388 44.7901 7.13979 44.6679 6.73571 44.5457C6.33162 44.4235 5.92754 44.3012 5.51764 44.1761C5.10774 44.051 4.69203 43.9259 4.2676 43.7949C3.84316 43.664 3.40419 43.5301 2.9536 43.3904C2.50009 43.2508 2.03205 43.1053 1.54075 42.954C1.04946 42.8026 0.53781 42.6426 0 42.4738L0 42.4767Z" fill="white"/>
<path d="M62.415 47.3504V41.8972C62.9558 41.7488 63.4761 41.6092 63.9791 41.4724C64.482 41.3356 64.9675 41.2047 65.4384 41.0766C65.9094 40.9486 66.3658 40.8235 66.8106 40.7042C67.2553 40.582 67.6885 40.4656 68.1158 40.3492C68.5403 40.2328 68.9589 40.1193 69.3717 40.0087C69.7845 39.8952 70.1944 39.7846 70.5985 39.6741C71.0055 39.5635 71.4095 39.4529 71.8165 39.3423C72.2235 39.2317 72.6305 39.1212 73.0433 39.0077C73.4561 38.8942 73.8748 38.7807 74.2992 38.6672C74.7236 38.5537 75.1597 38.4344 75.6045 38.3122C76.0493 38.19 76.5057 38.0678 76.9766 37.9397C77.4476 37.8117 77.933 37.6808 78.436 37.544C78.9389 37.4072 79.4593 37.2675 80 37.1191V41.6644C79.4593 41.842 78.9389 42.0136 78.436 42.1766C77.933 42.3425 77.4476 42.4996 76.9766 42.6538C76.5057 42.808 76.0493 42.9565 75.6045 43.102C75.1597 43.2474 74.7265 43.3871 74.2992 43.5268C73.8748 43.6665 73.4561 43.8003 73.0433 43.9342C72.6305 44.068 72.2235 44.199 71.8165 44.3329C71.4095 44.4638 71.0055 44.5947 70.5985 44.7257C70.1915 44.8566 69.7845 44.9876 69.3717 45.1214C68.9589 45.2553 68.5403 45.3892 68.1158 45.5259C67.6914 45.6627 67.2553 45.8024 66.8106 45.945C66.3658 46.0875 65.9094 46.233 65.4384 46.3843C64.9675 46.5357 64.482 46.6899 63.9791 46.8499C63.4761 47.01 62.9558 47.1759 62.415 47.3475V47.3504Z" fill="white"/>
<path d="M25.3008 80.649C25.3473 80.0903 25.3938 79.5462 25.4403 79.0107C25.4868 78.4753 25.5304 77.9544 25.5711 77.4423C25.6118 76.9301 25.6554 76.4296 25.6961 75.9378C25.7368 75.4461 25.7775 74.963 25.8182 74.4887C25.8589 74.0144 25.8967 73.5459 25.9345 73.0861C25.9723 72.6264 26.0101 72.1695 26.0479 71.7214C26.0857 71.2732 26.1235 70.828 26.1584 70.3857C26.1962 69.9463 26.231 69.5069 26.2659 69.0733C26.3008 68.6398 26.3386 68.2062 26.3735 67.7755C26.4084 67.3448 26.4433 66.9142 26.4811 66.4835C26.5159 66.0528 26.5508 65.6192 26.5886 65.1857C26.6235 64.7521 26.6613 64.3156 26.6962 63.8762C26.7311 63.4368 26.7689 62.9945 26.8037 62.5464C26.8415 62.0982 26.8764 61.6472 26.9142 61.1874C26.952 60.7277 26.9898 60.2621 27.0276 59.7907C27.0654 59.3164 27.1061 58.8362 27.1439 58.3444C27.1846 57.8527 27.2253 57.3551 27.266 56.8429C27.3067 56.3308 27.3503 55.8099 27.391 55.2745C27.4317 54.739 27.4782 54.192 27.5218 53.6304C27.5654 53.0687 27.6119 52.4926 27.6613 51.9019C28.1672 52.0823 28.5887 52.2307 28.9841 52.3704C29.3794 52.51 29.7428 52.6381 30.1382 52.7777C30.5306 52.9174 30.9551 53.0658 31.4609 53.2462C31.4958 53.7177 31.5248 54.1105 31.5539 54.4801C31.5801 54.8467 31.6062 55.1901 31.6353 55.5567C31.6615 55.9263 31.6935 56.3191 31.7283 56.7934C31.6876 57.3405 31.6498 57.8585 31.6121 58.3532C31.5743 58.8479 31.5394 59.3222 31.5074 59.779C31.4754 60.2359 31.4405 60.6753 31.4086 61.103C31.3766 61.5308 31.3446 61.9498 31.3155 62.3601C31.2865 62.7704 31.2545 63.1778 31.2254 63.5823C31.1963 63.9868 31.1644 64.3913 31.1353 64.8016C31.1033 65.2119 31.0742 65.6251 31.0423 66.0499C31.0103 66.4748 30.9783 66.9113 30.9434 67.3623C30.9085 67.8133 30.8737 68.2789 30.8388 68.7678C30.8039 69.2567 30.7632 69.763 30.7225 70.2984C31.1004 70.505 31.3824 70.6563 31.6644 70.8106C31.9464 70.9648 32.2313 71.119 32.6063 71.3227C32.6412 71.864 32.6761 72.3499 32.7051 72.8039C32.7342 73.2578 32.7633 73.6797 32.7923 74.093C32.8185 74.5062 32.8476 74.9077 32.8737 75.318C32.8999 75.7312 32.929 76.1532 32.9609 76.61C32.99 77.0669 33.0249 77.5558 33.0598 78.1028C32.6877 77.8759 32.3795 77.6838 32.0888 77.5063C31.801 77.3288 31.5307 77.1629 31.2429 76.9854C30.9551 76.8079 30.644 76.6188 30.2719 76.3889C30.237 76.8807 30.205 77.3317 30.1731 77.7565C30.144 78.1814 30.1149 78.5772 30.0858 78.9584C30.0568 79.3396 30.0306 79.7091 30.0044 80.0758C29.9783 80.4424 29.9521 80.8091 29.923 81.1903C29.894 81.5715 29.8678 81.9643 29.8358 82.3833C29.8068 82.8024 29.7719 83.2505 29.737 83.7365C29.2922 83.4251 28.9056 83.1545 28.5451 82.9042C28.1846 82.651 27.8532 82.4212 27.5189 82.1884C27.1846 81.9556 26.8532 81.7228 26.4927 81.4725C26.1322 81.2194 25.7456 80.9487 25.3008 80.6403V80.649ZM34.3825 86.9985C34.3447 86.4223 34.3098 85.8607 34.272 85.3107C34.2342 84.7607 34.1994 84.2195 34.1674 83.6899C34.1325 83.1603 34.0976 82.6394 34.0656 82.1302C34.0337 81.618 33.9988 81.1175 33.9668 80.6228C33.9348 80.1281 33.9028 79.6451 33.8709 79.165C33.8389 78.6848 33.8098 78.2163 33.7778 77.7507C33.7488 77.2851 33.7168 76.8283 33.6877 76.3772C33.6586 75.9233 33.6296 75.4781 33.6005 75.0358C33.5714 74.5935 33.5424 74.1541 33.5133 73.7205C33.4842 73.2869 33.4551 72.8533 33.429 72.4256C33.4028 71.9978 33.3737 71.57 33.3447 71.1481C33.3156 70.7233 33.2894 70.3013 33.2604 69.8794C33.2313 69.4574 33.2051 69.0384 33.1761 68.6165C33.147 68.1945 33.1208 67.7755 33.0918 67.3536C33.0627 66.9316 33.0365 66.5097 33.0075 66.0848C32.9784 65.66 32.9493 65.2322 32.9232 64.8045C32.8941 64.3738 32.865 63.9431 32.8359 63.5066C32.8069 63.0702 32.7778 62.6308 32.7458 62.1884C32.7167 61.7432 32.6848 61.2951 32.6557 60.8441C32.6266 60.3901 32.5947 59.9303 32.5627 59.4677C32.5307 59.0021 32.4987 58.5307 32.4667 58.0534C32.4348 57.5762 32.4028 57.0903 32.3679 56.5956C32.333 56.1009 32.301 55.6004 32.2662 55.0911C32.2313 54.5819 32.1964 54.0639 32.1615 53.5343C32.1266 53.0076 32.0888 52.4693 32.051 51.9222C31.6237 51.7767 31.2487 51.6516 30.9027 51.5352C30.5568 51.4188 30.2341 51.3111 29.9143 51.2006C29.5945 51.09 29.2719 50.9852 28.9259 50.8659C28.58 50.7495 28.205 50.6215 27.7776 50.4789C27.8212 49.9842 27.8561 49.5506 27.891 49.1462C27.9259 48.7417 27.9579 48.3692 27.9898 47.9967C28.0218 47.6243 28.0538 47.2489 28.0887 46.8444C28.1236 46.4399 28.1614 46.0034 28.2021 45.5029C28.7166 45.6455 29.1846 45.7794 29.6294 45.9016C30.0713 46.0238 30.4841 46.1402 30.8853 46.2537C31.2836 46.3643 31.6702 46.4719 32.0539 46.5796C32.4377 46.6873 32.8243 46.7949 33.2226 46.9055C33.6209 47.0161 34.0366 47.1325 34.4784 47.2576C34.9203 47.3798 35.3913 47.5137 35.9029 47.6563C35.9407 48.2063 35.9785 48.7475 36.0163 49.28C36.0541 49.8125 36.089 50.3392 36.1268 50.8572C36.1645 51.3752 36.1994 51.8844 36.2343 52.3878C36.2692 52.8912 36.3041 53.3888 36.339 53.8777C36.3739 54.3695 36.4058 54.8525 36.4407 55.3298C36.4727 55.807 36.5076 56.2813 36.5396 56.7498C36.5715 57.2183 36.6035 57.681 36.6355 58.1378C36.6675 58.5947 36.6995 59.0486 36.7285 59.4997C36.7605 59.9478 36.7896 60.3959 36.8216 60.8382C36.8535 61.2806 36.8826 61.72 36.9117 62.1564C36.9407 62.5929 36.9727 63.0265 37.0018 63.4572C37.0309 63.8878 37.0599 64.3185 37.089 64.7463C37.1181 65.174 37.1471 65.5989 37.1762 66.0266C37.2053 66.4544 37.2344 66.8763 37.2634 67.3012C37.2925 67.726 37.3216 68.148 37.3506 68.5728C37.3797 68.9977 37.4088 69.4225 37.4379 69.8474C37.4669 70.2722 37.496 70.7 37.5251 71.1277C37.5541 71.5555 37.5832 71.9862 37.6123 72.4168C37.6413 72.8504 37.6704 73.284 37.6995 73.7205C37.7286 74.157 37.7576 74.5993 37.7896 75.0416C37.8187 75.4868 37.8507 75.932 37.8797 76.3831C37.9088 76.8341 37.9408 77.291 37.9728 77.7507C38.0047 78.2105 38.0338 78.6761 38.0658 79.1475C38.0978 79.6189 38.1297 80.0961 38.1617 80.5792C38.1937 81.0622 38.2257 81.5511 38.2606 82.0458C38.2925 82.5405 38.3274 83.0439 38.3623 83.556C38.3972 84.0653 38.4321 84.5832 38.467 85.1099C38.5018 85.6366 38.5367 86.1691 38.5745 86.7133C38.6123 87.2575 38.6472 87.8103 38.685 88.372C38.7228 88.9336 38.7606 89.5068 38.7984 90.0859C38.3565 89.7775 37.9728 89.5068 37.6152 89.2566C37.2576 89.0063 36.9262 88.7764 36.5948 88.5436C36.2634 88.3138 35.9349 88.081 35.5744 87.8307C35.2168 87.5805 34.8302 87.3098 34.3912 87.0014L34.3825 86.9985Z" fill="white"/>
<path d="M46.33 86.5034V83.8088C46.33 83.4102 46.33 83.0202 46.33 82.6187V79.9241C46.8067 79.6244 47.048 79.473 47.5248 79.1733C47.8039 78.9987 48.0335 78.7776 48.2225 78.5099C48.4114 78.2421 48.5597 77.9337 48.6731 77.5787C48.7865 77.2237 48.865 76.825 48.9144 76.3827C48.9638 75.9404 48.987 75.4515 48.987 74.919V71.4446C48.987 70.7345 48.9493 70.1438 48.8562 69.6899C48.7632 69.2388 48.6179 68.9246 48.3998 68.7703C48.1847 68.6161 47.8969 68.6248 47.5248 68.8169C47.1149 69.0293 46.8096 69.1865 46.5015 69.3465C46.1933 69.5065 45.8881 69.6637 45.4782 69.8761V82.4703C45.4782 82.9359 45.4782 83.416 45.4782 83.9107V87.1C45.0334 87.4113 44.6468 87.6819 44.2863 87.9322C43.9258 88.1825 43.5944 88.4153 43.2601 88.648C42.9287 88.8808 42.5944 89.1136 42.2339 89.3639C41.8734 89.6141 41.4868 89.8877 41.042 90.1961V79.3421C41.042 78.8736 41.042 78.408 41.042 77.9482V66.1048C41.042 65.6684 41.042 65.2319 41.042 64.7925V51.8404C41.042 51.302 41.042 50.755 41.042 50.1992V48.5027C41.4868 48.3776 41.8734 48.2699 42.2339 48.1681C42.5944 48.0662 42.9258 47.9731 43.2601 47.88C43.5944 47.7869 43.9258 47.6937 44.2863 47.5919C44.6468 47.49 45.0334 47.3824 45.4782 47.2572V51.9015C45.4782 52.3671 45.4782 52.821 45.4782 53.2663V63.2269C45.8881 63.0436 46.1933 62.9068 46.5015 62.7701C46.8096 62.6333 47.1149 62.4965 47.5248 62.3132C47.8039 62.1881 48.0335 62.0077 48.2225 61.7778C48.4114 61.5479 48.5597 61.2627 48.6731 60.9281C48.7865 60.5934 48.865 60.2093 48.9144 59.7758C48.9638 59.3422 48.987 58.8591 48.987 58.3237V56.0074C48.987 55.2974 48.9493 54.7038 48.8562 54.244C48.7632 53.7842 48.6179 53.4525 48.3998 53.2721C48.1847 53.0887 47.8969 53.0538 47.5248 53.1848C47.048 53.3506 46.8067 53.435 46.33 53.6038C46.33 53.0771 46.33 52.6028 46.33 52.1605V47.0245C46.7748 46.8993 47.1469 46.7946 47.4957 46.6985C47.8446 46.6025 48.1643 46.5123 48.5132 46.4134C48.8591 46.3173 49.2312 46.2126 49.6789 46.0875C50.2022 45.942 50.6528 45.907 51.0395 45.9652C51.4261 46.0234 51.7517 46.1718 52.022 46.393C52.2924 46.6142 52.5133 46.911 52.6907 47.2631C52.868 47.6152 53.0017 48.0226 53.1035 48.4707C53.2052 48.9188 53.275 49.4077 53.3215 49.9198C53.368 50.432 53.3942 50.9703 53.4087 51.5145C53.4233 52.0586 53.4233 52.6115 53.4233 53.1528V54.212C53.4233 54.663 53.4233 55.1286 53.4116 55.6029C53.4029 56.0743 53.3855 56.5545 53.3535 57.0375C53.3215 57.5176 53.275 58.0007 53.2052 58.4808C53.1355 58.9581 53.0453 59.4324 52.9291 59.898C52.8099 60.3636 52.6645 60.8175 52.4814 61.2569C52.2982 61.6963 52.0802 62.1212 51.8215 62.5285C51.5627 62.933 51.2604 63.3171 50.9115 63.6751C50.5598 64.033 50.1615 64.3618 49.708 64.6557C50.2284 64.4753 50.6761 64.4054 51.0598 64.4258C51.4435 64.4462 51.7662 64.5539 52.0366 64.7343C52.3069 64.9147 52.525 65.1708 52.6994 65.4821C52.8738 65.7935 53.0075 66.1601 53.1093 66.5704C53.211 66.9778 53.2779 67.4289 53.3273 67.9032C53.3767 68.3775 53.4 68.878 53.4116 69.3872C53.4262 69.8965 53.4262 70.4144 53.4262 70.9237V73.4379C53.4262 73.8598 53.4262 74.2876 53.4174 74.7182C53.4116 75.1489 53.3971 75.5854 53.3738 76.0219C53.3506 76.4584 53.3157 76.8949 53.2692 77.3255C53.2198 77.7591 53.1558 78.1898 53.0715 78.6146C52.9872 79.0395 52.8825 79.4585 52.7517 79.8688C52.6209 80.2791 52.4668 80.6807 52.2808 81.0706C52.0947 81.4605 51.8825 81.8388 51.6325 82.2026C51.3825 82.5663 51.1005 82.9126 50.7749 83.2414C50.4522 83.5702 50.0888 83.8787 49.6818 84.1638C49.2371 84.4752 48.865 84.7342 48.5161 84.9786C48.1702 85.2201 47.8475 85.4471 47.4986 85.6886C47.1527 85.9302 46.7806 86.1921 46.3329 86.5034H46.33Z" fill="white"/>
<path d="M68.061 66.067C68.061 66.4831 68.0348 66.8934 67.9825 67.2979C67.9302 67.7024 67.8517 68.101 67.7499 68.4968C67.6482 68.8925 67.5203 69.2795 67.3691 69.6666C67.2179 70.0507 67.0435 70.4319 66.8487 70.8043C66.654 71.1797 66.4359 71.5464 66.1976 71.9101C65.9592 72.2738 65.7004 72.6289 65.4185 72.9781C65.1365 73.3272 64.8399 73.6706 64.5231 74.0053C64.2062 74.3399 63.869 74.6658 63.5172 74.9801C63.1655 75.2944 62.7934 75.6028 62.4067 75.8996C62.6073 75.3031 62.7556 74.7444 62.8544 74.2206C62.9533 73.6968 63.0027 73.2079 63.0027 72.7511C63.0027 72.2942 62.9533 71.8723 62.8544 71.4823C62.7556 71.0924 62.6044 70.7345 62.4067 70.4057C62.6625 70.1496 62.8835 69.847 63.0666 69.5181C63.2469 69.1864 63.3893 68.8285 63.4823 68.4589C63.5754 68.0894 63.6277 67.7082 63.6277 67.3328V64.6877C63.6277 64.161 63.5492 63.7478 63.4039 63.416C63.2614 63.0843 63.055 62.834 62.7992 62.6391C62.5434 62.4441 62.2439 62.3044 61.9096 62.1968C61.5753 62.0891 61.2119 62.0105 60.8311 61.9378C60.4503 61.865 60.052 61.7981 59.6566 61.7079C59.2584 61.6206 58.863 61.51 58.4822 61.3558C58.1013 61.2016 57.735 61.0008 57.4036 60.7273C57.0693 60.4537 56.767 60.1074 56.5141 59.6651C56.2611 59.2228 56.0547 58.6845 55.9094 58.0239C55.7669 57.3634 55.6855 56.5835 55.6855 55.6669V51.0314C55.6855 50.4785 55.7204 49.9402 55.7873 49.4193C55.8542 48.8984 55.9559 48.395 56.0896 47.9119C56.2234 47.4289 56.3862 46.9691 56.578 46.5356C56.7699 46.102 56.9937 45.6888 57.2437 45.3047C57.4938 44.9205 57.7728 44.5655 58.0781 44.2367C58.3833 43.9108 58.7118 43.6111 59.0665 43.3434C59.4211 43.0756 59.7991 42.8399 60.2032 42.6363C60.6072 42.4326 61.0288 42.258 61.4735 42.1183C61.273 42.6333 61.1247 43.1397 61.0259 43.6344C60.927 44.129 60.8776 44.6121 60.8776 45.0806C60.8776 45.5491 60.927 46.003 61.0259 46.4366C61.1247 46.8702 61.2759 47.2863 61.4735 47.6792C61.1916 47.8421 60.9445 48.0749 60.7439 48.3572C60.5433 48.6394 60.3863 48.977 60.2816 49.3465C60.177 49.7161 60.1188 50.1206 60.1188 50.5425V52.5358C60.1188 53.1353 60.1973 53.6096 60.3427 53.9879C60.4851 54.3662 60.6915 54.6484 60.9474 54.8638C61.2032 55.0791 61.5026 55.2217 61.8369 55.3264C62.1712 55.4312 62.5346 55.4952 62.9155 55.5505C63.2963 55.6029 63.6946 55.6465 64.0899 55.7047C64.4882 55.7629 64.8836 55.8386 65.2644 55.9579C65.6452 56.0772 66.0115 56.2402 66.3429 56.473C66.6743 56.7057 66.9796 57.0113 67.2325 57.4158C67.4854 57.8202 67.6918 58.3208 67.8372 58.9522C67.9796 59.5837 68.0581 60.3432 68.0581 61.2685V66.0728L68.061 66.067ZM60.1218 69.4978C60.1218 70.1292 60.2555 70.5977 60.491 70.8625C60.7264 71.1303 61.0666 71.1972 61.4765 71.0342C61.677 71.366 61.8253 71.7297 61.9241 72.1254C62.023 72.5212 62.0724 72.949 62.0724 73.4116C62.0724 73.8743 62.023 74.369 61.9241 74.8986C61.8253 75.4282 61.6741 75.9927 61.4765 76.5951C60.9677 76.9385 60.488 77.2207 60.0345 77.439C59.581 77.6572 59.1624 77.8114 58.7729 77.8958C58.3833 77.9802 58.0257 78.0006 57.7031 77.9453C57.3804 77.89 57.0926 77.7678 56.8455 77.5728C56.5955 77.3779 56.3832 77.1072 56.2117 76.7668C56.0402 76.4234 55.9094 76.0073 55.8193 75.5184C55.7321 75.0266 55.6855 74.4621 55.6855 73.8248V67.0418C56.1303 66.8003 56.517 66.5879 56.8774 66.39C57.2379 66.1921 57.5693 66.0117 57.9036 65.8284C58.238 65.645 58.5694 65.4646 58.9299 65.2667C59.2903 65.0689 59.677 64.8564 60.1218 64.6149V69.4978ZM62.4154 47.3532C62.2149 46.9575 62.0666 46.5472 61.9648 46.1253C61.8631 45.7033 61.8137 45.2639 61.8108 44.8129C61.8108 44.3589 61.8573 43.8933 61.9561 43.4074C62.055 42.9214 62.2032 42.4209 62.4038 41.9029C63.0986 41.7604 63.5463 41.8651 63.8079 42.1241C64.0696 42.3831 64.1481 42.7963 64.1103 43.2852C64.0725 43.774 63.9184 44.3356 63.712 44.8914C63.5056 45.4472 63.2527 45.9885 63.0143 46.4308C62.7759 46.8731 62.5521 47.2136 62.4125 47.3562L62.4154 47.3532Z" fill="white"/>
<path d="M0 12.6029V33.4525C0.531996 33.5631 0.973873 33.6591 1.38668 33.7464C1.79948 33.8337 2.18322 33.9152 2.59602 34.0025C3.00883 34.0898 3.45071 34.1829 3.9827 34.2964V24.0826C3.93328 23.5471 3.88677 23.0408 3.84026 22.5607C3.79665 22.0805 3.75304 21.6208 3.71234 21.1814C3.67165 20.742 3.63095 20.32 3.59315 19.9068C3.55536 19.4936 3.51757 19.092 3.47978 18.6963C3.44199 18.3005 3.40419 17.9048 3.36931 17.509C3.33442 17.1133 3.29372 16.7146 3.25593 16.3072C3.21814 15.8998 3.17744 15.4837 3.13674 15.0501C3.09604 14.6195 3.05244 14.1714 3.00883 13.7029C2.96522 13.2344 2.91871 12.7426 2.86638 12.2246C2.29369 12.3003 1.86344 12.3585 1.43319 12.4167C1.00294 12.4749 0.572695 12.5331 0 12.6087L0 12.6029Z" fill="white"/>
<path d="M2.43032 7.59473C1.94484 7.69657 1.57855 7.77223 1.21516 7.84789C0.851775 7.92355 0.485483 7.99921 0 8.10105V12.6784C0.572695 12.6027 1.00585 12.5445 1.4361 12.4892C1.86635 12.4339 2.2966 12.3757 2.8722 12.3001C2.82859 11.8258 2.7908 11.4125 2.75301 11.0284C2.71812 10.6443 2.68324 10.2922 2.65126 9.94013C2.61928 9.58803 2.5844 9.23592 2.54951 8.85472C2.51463 8.47352 2.47393 8.06322 2.43032 7.59764V7.59473Z" fill="white"/>
<path d="M6.95711 6.65232C6.48907 6.75126 6.09952 6.82983 5.73614 6.9084L4.67215 7.12955C4.30876 7.20521 3.91921 7.28669 3.45117 7.38563C3.49478 7.84539 3.53257 8.24987 3.57036 8.62234C3.60525 8.99772 3.64013 9.34401 3.67211 9.69029C3.70409 10.0366 3.73897 10.3858 3.77386 10.7641C3.80874 11.1423 3.84654 11.5497 3.89305 12.0153C3.94538 12.5653 3.9977 13.0978 4.04712 13.6187C4.09654 14.1396 4.14596 14.643 4.19248 15.1377C4.23899 15.6324 4.2855 16.1125 4.32911 16.5868C4.37272 17.0582 4.41632 17.5209 4.45993 17.9748C4.50354 18.4288 4.54423 18.8769 4.58493 19.3163C4.62563 19.7557 4.66633 20.1922 4.70703 20.6229C4.74773 21.0536 4.78843 21.4813 4.82622 21.9091C4.86692 22.3368 4.90471 22.7617 4.94541 23.1865C4.98611 23.6114 5.0239 24.0391 5.0646 24.4669C5.1053 24.8976 5.14309 25.3282 5.18379 25.7676C5.22449 26.2041 5.26519 26.6493 5.30589 27.1004C5.34659 27.5514 5.3902 28.0083 5.4338 28.4768C5.47741 28.9453 5.52101 29.4225 5.56462 29.9143C5.60823 30.4031 5.65474 30.9066 5.70125 31.4245C5.74777 31.9425 5.79719 32.475 5.84661 33.0221C5.89603 33.5691 5.94836 34.1366 6.00068 34.7244C6.56756 34.8437 7.06177 34.9485 7.52109 35.0445C7.98041 35.1405 8.40484 35.2307 8.82927 35.3209C9.25371 35.4111 9.67814 35.4984 10.1375 35.5974C10.5968 35.6963 11.091 35.7981 11.6579 35.9175C11.7015 35.3995 11.7422 34.9252 11.78 34.4799C11.8178 34.0347 11.8526 33.6157 11.8875 33.2112C11.9224 32.8067 11.9544 32.4168 11.9893 32.024C12.0213 31.634 12.0561 31.2412 12.091 30.8338C12.1259 30.4264 12.1608 30.0045 12.1986 29.5534C12.2364 29.1024 12.2771 28.6194 12.3207 28.0927C11.8526 28.0461 11.4631 28.0054 11.0997 27.9675C10.7363 27.9297 10.3991 27.8977 10.0357 27.8599C9.67233 27.822 9.28278 27.7842 8.81474 27.7347C8.76532 27.1586 8.7159 26.5999 8.66938 26.0615C8.62287 25.5232 8.57927 24.9994 8.53275 24.4931C8.48624 23.9868 8.44554 23.495 8.40484 23.0148C8.36414 22.5347 8.32344 22.0691 8.28274 21.6093C8.24204 21.1525 8.20425 20.7044 8.16646 20.262C8.12867 19.8197 8.09088 19.3862 8.05308 18.9584C8.01529 18.5277 7.9775 18.1029 7.93971 17.6809C7.90192 17.259 7.86412 16.8371 7.82924 16.4151C7.79435 15.9932 7.75365 15.5712 7.71586 15.1464C7.67807 14.7215 7.64028 14.2938 7.60249 13.8602C7.56469 13.4266 7.52399 12.9872 7.4862 12.5391C7.4455 12.091 7.4048 11.637 7.3641 11.1714C7.32341 10.7059 7.2798 10.2315 7.23619 9.74267C7.19259 9.2538 7.14607 8.75329 7.09956 8.24114C7.05305 7.72609 7.00653 7.19648 6.95421 6.64941L6.95711 6.65232Z" fill="white"/>
<path d="M17.6316 37.1712V35.498C17.6316 34.9509 17.6316 34.4184 17.6316 33.8946V10.7345C17.6316 10.2456 17.6316 9.75095 17.6316 9.24753V4.42578C17.0763 4.54218 16.5792 4.64403 16.1112 4.74296C15.6461 4.83899 15.2129 4.9292 14.7914 5.01941C14.3698 5.1067 13.9599 5.194 13.5384 5.2813C13.1169 5.3686 12.6837 5.45881 12.2186 5.55774C11.7535 5.65668 11.2535 5.75853 10.6982 5.87492C10.6488 6.45982 10.5994 7.01562 10.5528 7.55104C10.5063 8.08647 10.4627 8.59571 10.4191 9.09039C10.3755 9.58508 10.3348 10.0594 10.2941 10.5221C10.2534 10.9848 10.2156 11.4358 10.1749 11.8781C10.1371 12.3204 10.0993 12.7569 10.0616 13.1876C10.0238 13.6182 9.98597 14.0489 9.94818 14.4796C9.91038 14.9102 9.87259 15.3409 9.8348 15.7803C9.79701 16.2197 9.75631 16.6649 9.71561 17.1189C9.67491 17.5757 9.63421 18.0413 9.5906 18.5244C9.547 19.0074 9.50339 19.505 9.45688 20.023C9.41036 20.541 9.36385 21.0793 9.31152 21.6409C9.35222 22.1356 9.38711 22.5692 9.41909 22.9736C9.45106 23.3781 9.48013 23.7506 9.51211 24.1231C9.54118 24.4955 9.57316 24.8709 9.60514 25.2754C9.63712 25.6799 9.672 26.1193 9.7127 26.6198C10.2534 26.6663 10.6604 26.6984 11.0674 26.7333C11.4744 26.7682 11.8785 26.8031 12.4221 26.8468C12.4686 26.3142 12.5122 25.805 12.5529 25.3161C12.5936 24.8273 12.6343 24.3559 12.6721 23.899C12.7099 23.4421 12.7477 23.0028 12.7855 22.5721C12.8233 22.1414 12.8582 21.7224 12.893 21.3063C12.9279 20.8901 12.9628 20.4857 12.9977 20.0783C13.0326 19.6709 13.0646 19.2664 13.0995 18.859C13.1343 18.4516 13.1692 18.0413 13.2041 17.6252C13.239 17.2091 13.2739 16.7842 13.3117 16.3448C13.3466 15.9083 13.3843 15.4602 13.425 14.9946C13.4628 14.529 13.5035 14.0489 13.5442 13.5455C13.5849 13.0421 13.6285 12.5183 13.6751 11.9683V15.2216C13.6751 15.7367 13.6751 16.2372 13.6751 16.726V36.336C14.2012 36.4466 14.6431 36.5397 15.053 36.627C15.4629 36.7143 15.8437 36.7929 16.2536 36.8802C16.6635 36.9675 17.1025 37.0606 17.6316 37.1712Z" fill="white"/>
</g>
<defs>
<clipPath id="clip0_1371_8159">
<rect width="80" height="90.1961" fill="white"/>
</clipPath>
</defs>
</svg>
